<svg width="83" height="64" viewBox="0 0 83 64" fill="none" xmlns="http://www.w3.org/2000/svg">
<rect y="2.73865" width="10.9545" height="54.7727" rx="5.47727" fill="#E4B437"/>
<path d="M0 45.4614H27.3864L29.5773 4.92955L20.8136 0H0V45.4614Z" fill="#E4B437"/>
<rect x="23.0046" y="4.92944" width="50.3909" height="50.3909" fill="#E4B437"/>
<rect x="5.47729" y="42.175" width="23.0046" height="15.3364" fill="#E4B437"/>
<rect x="2.19092" y="2.73877" width="10.9545" height="54.7727" rx="5.47727" fill="#FBCF41"/>
<path d="M2.19092 47.6524H29.5773V7.12059L20.8137 2.19104H2.19092V47.6524Z" fill="#FBCF41"/>
<rect x="25.1953" y="7.12061" width="48.2" height="50.3909" fill="#FBCF41"/>
<rect x="7.66821" y="42.175" width="23.0046" height="15.3364" fill="#FBCF41"/>
<path d="M12.05 14.7886H73.3955V57.5113H12.05V14.7886Z" fill="#DEAD30"/>
<path d="M12.5098 57.5113C13.0588 56.7426 13.3622 55.7419 13.3622 54.5588L13.3622 15.3903H73.3954V13.6931L11.6255 13.6931L11.6255 52.8617C11.6255 55.707 9.87518 57.5113 7.12036 57.5113H9.81851H12.5098Z" fill="#CA992C"/>
<path d="M19.2756 23.1361H12.6049C12.1882 23.1361 11.8499 22.797 11.8499 22.3803C11.8499 21.9644 12.1882 21.6276 12.6049 21.6276H19.2756C19.6923 21.6276 20.0292 21.9644 20.0292 22.3803C20.0292 22.797 19.6923 23.1361 19.2756 23.1361Z" fill="#CA992C"/>
<path fill-rule="evenodd" clip-rule="evenodd" d="M61.8901 51.4627C74.2461 51.4066 74.2457 32.6067 61.8897 32.5561C49.5361 32.6108 49.5352 51.4092 61.8901 51.4627ZM40.6095 40.5567C40.6171 37.4606 44.3243 37.9974 46.3976 37.9954C46.7282 36.707 47.2207 35.4666 47.863 34.3024C46.3947 32.8442 43.4735 30.6252 45.6348 28.4502C49.075 24.6622 49.9774 24.552 53.445 28.3995C54.6432 27.6491 55.9369 27.063 57.2914 26.6564C57.2511 24.5868 56.8997 21.3572 59.8512 21.3044C64.44 21.1207 65.7598 21.3585 65.4222 26.3722C66.9044 26.71 68.3295 27.2613 69.6537 28.0078C71.0152 26.5113 72.9704 24.3986 74.9619 26.3186C78.0498 29.2101 79.2485 30.4364 75.5391 33.6233C76.374 34.9792 77.0015 36.4533 77.3999 37.9954C82.261 37.628 82.234 39.3936 82.1035 43.5704C82.0558 46.223 79.3636 46.2573 77.3762 46.1316C76.9662 47.6544 76.3339 49.1081 75.499 50.4461C79.2262 53.6664 78.1033 54.8578 74.9619 57.795C72.9392 59.7394 70.9611 57.5343 69.5857 56.0379C68.2763 56.7571 66.8726 57.2895 65.4158 57.6193C65.7152 62.709 64.6052 62.9831 59.8541 62.8023C56.8581 62.7521 57.2676 59.4156 57.2943 57.3385C55.9671 56.9424 54.6969 56.3745 53.5159 55.6495C50.0152 59.4926 49.1431 59.5384 45.6342 55.6728C43.4617 53.4926 46.43 51.2487 47.8902 49.784C47.248 48.6327 46.7526 47.4055 46.4145 46.1316C41.1645 46.3313 40.3317 46.0094 40.6095 40.5567Z" fill="black"/>
<path fill-rule="evenodd" clip-rule="evenodd" d="M63.0949 52.8998C75.1495 52.8451 75.1491 34.5038 63.0946 34.4544C51.0423 34.5078 51.0413 52.8476 63.0949 52.8998ZM42.3334 42.2598C42.3408 39.2392 45.9576 39.7629 47.9803 39.7611C48.3028 38.5041 48.7833 37.2939 49.41 36.158C47.9775 34.7355 45.1275 32.5706 47.2361 30.4486C50.5924 26.753 51.4728 26.6455 54.8558 30.3992C56.0248 29.6671 57.2869 29.0953 58.6084 28.6986C58.569 26.6794 58.2263 23.5286 61.1057 23.4771C65.5826 23.2979 66.8702 23.5299 66.5409 28.4213C67.9869 28.7508 69.3772 29.2887 70.6692 30.0171C71.9975 28.557 73.905 26.4958 75.8479 28.3691C78.8605 31.19 80.0299 32.3864 76.411 35.4956C77.2256 36.8184 77.8377 38.2565 78.2264 39.761C82.9689 39.4026 82.9426 41.1251 82.8153 45.2C82.7688 47.7879 80.1423 47.8214 78.2034 47.6988C77.8033 49.1844 77.1864 50.6026 76.3719 51.9081C80.0082 55.0498 78.9127 56.2121 75.8479 59.0777C73.8746 60.9746 71.9447 58.8233 70.6028 57.3635C69.3254 58.0651 67.9559 58.5845 66.5347 58.9062C66.8267 63.8718 65.7438 64.1393 61.1085 63.9629C58.1856 63.9139 58.5851 60.6587 58.6112 58.6324C57.3164 58.2459 56.0772 57.6919 54.925 56.9846C51.5097 60.7339 50.6588 60.7785 47.2356 57.0073C45.116 54.8802 48.0119 52.6911 49.4365 51.2621C48.81 50.1389 48.3266 48.9416 47.9967 47.6988C42.8748 47.8936 42.0623 47.5796 42.3334 42.2598Z" fill="#A3A2A3"/>
</svg>
