<svg width="99" height="64" viewBox="0 0 99 64" fill="none" xmlns="http://www.w3.org/2000/svg">
<path d="M82.652 54.3927H5.03726C2.25556 54.3927 0 52.1371 0 49.3554V5.03726C0 2.25556 2.25556 0 5.03726 0H82.652C85.4337 0 87.6892 2.25556 87.6892 5.03726V49.3544C87.6892 52.1371 85.4337 54.3927 82.652 54.3927Z" fill="#363B38"/>
<path d="M82.6521 0H81.2841V22.9268C81.2841 38.5365 68.6306 51.1901 53.0209 51.1901H0.356689C1.09133 53.0627 2.90455 54.3927 5.03735 54.3927H82.6521C85.4338 54.3927 87.6893 52.1371 87.6893 49.3554V5.03726C87.6893 2.25556 85.4338 0 82.6521 0Z" fill="#2E322F"/>
<path d="M18.4849 17.7182H7.72743C6.58454 17.7182 5.65894 16.7916 5.65894 15.6497V9.85731C5.65894 8.71443 6.58552 7.78882 7.72743 7.78882H18.4849C19.6278 7.78882 20.5534 8.7154 20.5534 9.85731V15.6497C20.5534 16.7916 19.6278 17.7182 18.4849 17.7182Z" fill="#EAA500"/>
<path d="M19.3745 28.2837H6.83783C6.23667 28.2837 5.74951 27.7975 5.74951 27.1954C5.74951 26.5932 6.23667 26.1071 6.83783 26.1071H19.3754C19.9766 26.1071 20.4638 26.5932 20.4638 27.1954C20.4638 27.7975 19.9756 28.2837 19.3745 28.2837Z" fill="#545C56"/>
<path d="M37.6909 28.2837H25.1542C24.5531 28.2837 24.0659 27.7975 24.0659 27.1954C24.0659 26.5932 24.5531 26.1071 25.1542 26.1071H37.6919C38.293 26.1071 38.7802 26.5932 38.7802 27.1954C38.7802 27.7975 38.292 28.2837 37.6909 28.2837Z" fill="#545C56"/>
<path d="M56.008 28.2837H43.4694C42.8683 28.2837 42.3811 27.7975 42.3811 27.1954C42.3811 26.5932 42.8673 26.1071 43.4694 26.1071H56.008C56.6092 26.1071 57.0963 26.5932 57.0963 27.1954C57.0963 27.7975 56.6092 28.2837 56.008 28.2837Z" fill="#545C56"/>
<path d="M74.3244 28.2837H61.7858C61.1847 28.2837 60.6975 27.7975 60.6975 27.1954C60.6975 26.5932 61.1837 26.1071 61.7858 26.1071H74.3244C74.9256 26.1071 75.4127 26.5932 75.4127 27.1954C75.4127 27.7975 74.9256 28.2837 74.3244 28.2837Z" fill="#545C56"/>
<path d="M30.2548 46.7793H6.83783C6.23667 46.7793 5.74951 46.2931 5.74951 45.691C5.74951 45.0898 6.23667 44.6027 6.83783 44.6027H30.2548C30.8559 44.6027 31.3431 45.0888 31.3431 45.691C31.3431 46.2931 30.8559 46.7793 30.2548 46.7793Z" fill="#545C56"/>
<path d="M30.2548 40.2512H22.0695C21.4684 40.2512 20.9812 39.765 20.9812 39.1629C20.9812 38.5608 21.4684 38.0746 22.0695 38.0746H30.2548C30.856 38.0746 31.3431 38.5608 31.3431 39.1629C31.3431 39.765 30.856 40.2512 30.2548 40.2512Z" fill="#545C56"/>
<path d="M71.7668 37.3849C70.2273 37.3849 68.8691 38.1 67.9591 39.1991C67.0481 38.1 65.6899 37.3849 64.1514 37.3849C61.4097 37.3849 59.1863 39.6083 59.1863 42.35C59.1863 45.0918 61.4097 47.3152 64.1514 47.3152C65.6909 47.3152 67.0491 46.6 67.9591 45.501C68.8701 46.6 70.2283 47.3152 71.7668 47.3152C74.5085 47.3152 76.7319 45.0918 76.7319 42.35C76.7319 39.6073 74.5085 37.3849 71.7668 37.3849Z" fill="#545C56"/>
<path d="M68.8535 46.3409C69.67 46.9469 70.6706 47.3142 71.7667 47.3142C74.5085 47.3142 76.7319 45.0908 76.7319 42.3491C76.7319 41.3124 76.4123 40.3517 75.8696 39.5557C73.9405 42.2019 71.568 44.5023 68.8535 46.3409Z" fill="#494F4A"/>
<path fill-rule="evenodd" clip-rule="evenodd" d="M80.2982 26.206L88.8059 40.9423L97.3141 55.6784C98.3325 57.4425 98.3325 59.462 97.3141 61.2261C96.2956 62.9903 94.5466 64 92.5097 64H75.4936H58.4778C56.4408 64 54.6918 62.9903 53.6733 61.2261C52.6548 59.462 52.6548 57.4425 53.6733 55.6784L62.1813 40.9423L70.6892 26.206C71.7077 24.442 73.4566 23.432 75.4936 23.432C77.5307 23.432 79.2797 24.442 80.2982 26.206Z" fill="#F1DE00"/>
<path d="M76.939 28.1437C76.7768 27.8627 76.5755 27.6528 76.3401 27.5169C76.107 27.3823 75.8232 27.3138 75.4937 27.3138C75.1653 27.3138 74.8823 27.382 74.6495 27.5157L74.6502 27.5169C74.412 27.6546 74.2097 27.8643 74.0484 28.1437L57.0326 57.6162C56.8715 57.8952 56.7909 58.1759 56.7909 58.4524C56.7909 58.7282 56.8711 59.0081 57.0313 59.2863L57.0326 59.2856C57.1966 59.5697 57.3978 59.7806 57.6313 59.9154C57.8646 60.0501 58.1483 60.1188 58.4779 60.1188H92.5096C92.839 60.1188 93.1228 60.0501 93.3561 59.9154C93.5896 59.7806 93.7909 59.5697 93.9547 59.2856L93.9562 59.2863C94.1163 59.0081 94.1966 58.7282 94.1966 58.4524C94.1966 58.1778 94.116 57.8982 93.9547 57.6192V57.6162L76.939 28.1437ZM77.1015 26.1919C77.5736 26.4645 77.9641 26.8631 78.264 27.3823L95.2784 56.8525L95.2797 56.8518C95.5808 57.3731 95.7313 57.9103 95.7313 58.4524C95.7313 58.9925 95.5808 59.5286 95.2797 60.05V60.053C94.9816 60.5693 94.5911 60.9669 94.1175 61.2404C93.6436 61.514 93.1042 61.6536 92.5096 61.6536H58.4779C57.8831 61.6536 57.3439 61.514 56.87 61.2404C56.3963 60.9669 56.0057 60.5693 55.7076 60.053V60.05C55.4067 59.5286 55.2561 58.9925 55.2561 58.4524C55.2561 57.9123 55.4067 57.3761 55.7076 56.8548L72.7235 27.3823C73.0243 26.8615 73.4139 26.4627 73.8828 26.1919H73.8858C74.3598 25.9184 74.8989 25.7788 75.4937 25.7788C76.0885 25.7788 76.6276 25.9184 77.1015 26.1919Z" fill="black"/>
<path fill-rule="evenodd" clip-rule="evenodd" d="M75.4931 36.1578C74.0454 36.1578 73.2764 36.2967 73.2764 37.1624C73.2764 37.6818 73.3667 38.4095 73.5927 40.2456L74.9052 51.4337C75.1313 51.6416 75.8101 51.6416 76.0816 51.4337L77.3936 40.2456C77.6203 38.4095 77.7107 37.6818 77.7107 37.1624C77.7107 36.2967 76.9415 36.1578 75.4931 36.1578Z" fill="black"/>
<path fill-rule="evenodd" clip-rule="evenodd" d="M75.4935 56.6665C76.6713 56.6665 77.4333 55.87 77.4333 54.7616C77.4333 53.653 76.6713 52.7177 75.4935 52.7177C74.385 52.7177 73.5537 53.5838 73.5537 54.7616C73.5537 55.9391 74.4889 56.6665 75.4935 56.6665Z" fill="black"/>
</svg>
