<svg width="93" height="64" viewBox="0 0 93 64" fill="none" xmlns="http://www.w3.org/2000/svg">
<path d="M0.911349 63.6266C0.613904 63.6266 0.371948 63.3838 0.371948 63.0851V58.5809C0.371948 58.2821 0.613904 58.0394 0.911349 58.0394H3.16195V5.96154H0.911349C0.613904 5.96154 0.371948 5.71801 0.371948 5.41924V0.916607C0.371948 0.617054 0.613904 0.373524 0.911349 0.373524H92.087C92.3854 0.373524 92.6279 0.617054 92.6279 0.916607V5.41924C92.6279 5.71801 92.3854 5.96154 92.087 5.96154H89.8364V58.0394H92.087C92.3854 58.0394 92.6279 58.2821 92.6279 58.5809V63.0851C92.6279 63.3838 92.3854 63.6266 92.087 63.6266H0.911349Z" fill="#F3F8FD"/>
<path d="M23.616 34.7076L24.2222 29.9015L46.4992 17.8167L69.5787 30.8749L69.0277 35.1348L23.616 34.7076Z" fill="#A4DCF6"/>
<path d="M57.7848 58.5801H35.1709V43.9323H57.7848V58.5801Z" fill="#A4DCF6"/>
<path d="M48.7428 59.4958H44.2563C43.7527 59.4958 43.3446 59.0858 43.3446 58.5801C43.3446 58.0743 43.7527 57.6651 44.2563 57.6651H48.7428C49.2458 57.6651 49.6542 58.0743 49.6542 58.5801C49.6542 59.0858 49.2458 59.4958 48.7428 59.4958Z" fill="#6963B0"/>
<path d="M68.4837 34.0207H24.5148V30.973L46.5 18.8306L68.4837 30.973V34.0207ZM69.8353 29.6301L51.8235 19.6818L50.0007 18.675L46.9387 16.9843C46.6651 16.8333 46.3339 16.8333 46.0598 16.9843L42.9983 18.675L41.1742 19.6834L23.1645 29.6301C22.8731 29.7904 22.692 30.0977 22.692 30.4315V34.9357C22.692 35.4406 23.1 35.8514 23.6034 35.8514H69.3951C69.8988 35.8514 70.3065 35.4406 70.3065 34.9357V30.4315C70.3065 30.0977 70.1259 29.7904 69.8353 29.6301Z" fill="#6963B0"/>
<path d="M91.1756 62.1685H1.8228V59.4958H91.1756V62.1685ZM92.0871 57.6658H0.911401C0.407961 57.6658 0 58.0759 0 58.5808V63.085C0 63.5907 0.407961 64 0.911401 64H92.0871C92.5908 64 93 63.5907 93 63.085V58.5808C93 58.0759 92.5908 57.6658 92.0871 57.6658Z" fill="#6963B0"/>
<path d="M65.9866 57.6651H27.0121V35.8514H65.9866V57.6651ZM66.898 34.0207H26.1007C25.5973 34.0207 25.1893 34.4299 25.1893 34.9356V58.5801C25.1893 59.085 25.5973 59.4958 26.1007 59.4958H66.898C67.4017 59.4958 67.8094 59.085 67.8094 58.5801V34.9356C67.8094 34.4299 67.4017 34.0207 66.898 34.0207Z" fill="#6963B0"/>
<path d="M46.4995 59.4165C45.9959 59.4165 45.5878 59.0065 45.5878 58.5007V44.0732C45.5878 43.5674 45.9959 43.1582 46.4995 43.1582C47.003 43.1582 47.4114 43.5674 47.4114 44.0732V58.5007C47.4114 59.0065 47.003 59.4165 46.4995 59.4165Z" fill="#6963B0"/>
<path d="M57.0881 57.6659H35.9105V44.7835H57.0881V57.6659ZM58.0011 42.9528H34.9978C34.4944 42.9528 34.0864 43.3636 34.0864 43.8685V58.5809C34.0864 59.0866 34.4944 59.4958 34.9978 59.4958H58.0011C58.5048 59.4958 58.9125 59.0866 58.9125 58.5809V43.8685C58.9125 43.3636 58.5048 42.9528 58.0011 42.9528Z" fill="#6963B0"/>
<path d="M88.3857 57.6806H4.61408V6.33497H88.3857V57.6806ZM89.2971 4.50419H3.70144C3.198 4.50419 2.79004 4.91346 2.79004 5.4192V58.5956C2.79004 59.0469 3.11492 59.4211 3.54272 59.4958C3.59356 59.506 3.64688 59.5106 3.70144 59.5106H89.2971C89.3521 59.5106 89.4056 59.506 89.456 59.4958C89.8838 59.4211 90.2085 59.0469 90.2085 58.5956V5.4192C90.2085 4.91346 89.8008 4.50419 89.2971 4.50419Z" fill="#6963B0"/>
<path d="M91.1756 4.50418H1.8228V1.83155H91.1756V4.50418ZM92.0871 4.29153e-06H0.911401C0.407961 4.29153e-06 0 0.409262 0 0.916556V5.41918C0 5.92414 0.407961 6.33496 0.911401 6.33496H92.0871C92.5908 6.33496 93 5.92414 93 5.41918V0.916556C93 0.409262 92.5908 4.29153e-06 92.0871 4.29153e-06Z" fill="#6963B0"/>
<path d="M18.5764 18.7731H11.5741V11.7441H18.5764V18.7731ZM19.4878 9.9133H10.6627C10.1593 9.9133 9.75134 10.3226 9.75134 10.8291V19.6896C9.75134 20.1946 10.1593 20.6046 10.6627 20.6046H19.4878C19.9913 20.6046 20.3992 20.1946 20.3992 19.6896V10.8291C20.3992 10.3226 19.9913 9.9133 19.4878 9.9133Z" fill="#6963B0"/>
<path d="M50.912 20.8528C50.4083 20.8528 49.9998 20.4427 49.9998 19.9378V11.744H42.9982V19.9378C42.9982 20.4427 42.5901 20.8528 42.0865 20.8528C41.5829 20.8528 41.1747 20.4427 41.1747 19.9378V10.8291C41.1747 10.3233 41.5829 9.91328 42.0865 9.91328H50.912C51.415 9.91328 51.8234 10.3233 51.8234 10.8291V19.9378C51.8234 20.4427 51.415 20.8528 50.912 20.8528Z" fill="#6963B0"/>
<path d="M81.4245 18.7731H74.4224V11.7441H81.4245V18.7731ZM82.3359 9.9133H73.511C73.0073 9.9133 72.5996 10.3226 72.5996 10.8291V19.6896C72.5996 20.1946 73.0073 20.6046 73.511 20.6046H82.3359C82.8397 20.6046 83.2473 20.1946 83.2473 19.6896V10.8291C83.2473 10.3226 82.8397 9.9133 82.3359 9.9133Z" fill="#6963B0"/>
<path d="M18.5764 34.7076H11.5741V27.6779H18.5764V34.7076ZM19.4878 25.8479H10.6627C10.1593 25.8479 9.75134 26.2571 9.75134 26.7629V35.6226C9.75134 36.1284 10.1593 36.5392 10.6627 36.5392H19.4878C19.9913 36.5392 20.3992 36.1284 20.3992 35.6226V26.7629C20.3992 26.2571 19.9913 25.8479 19.4878 25.8479Z" fill="#6963B0"/>
<path d="M81.4245 34.7076H74.4224V27.6779H81.4245V34.7076ZM82.3359 25.8479H73.511C73.0073 25.8479 72.5996 26.2571 72.5996 26.7629V35.6226C72.5996 36.1284 73.0073 36.5392 73.511 36.5392H82.3359C82.8397 36.5392 83.2473 36.1284 83.2473 35.6226V26.7629C83.2473 26.2571 82.8397 25.8479 82.3359 25.8479Z" fill="#6963B0"/>
<path d="M18.5764 50.2501H11.5741V43.2211H18.5764V50.2501ZM19.4878 41.3904H10.6627C10.1593 41.3904 9.75134 41.7996 9.75134 42.3054V51.1651C9.75134 51.6709 10.1593 52.0817 10.6627 52.0817H19.4878C19.9913 52.0817 20.3992 51.6709 20.3992 51.1651V42.3054C20.3992 41.7996 19.9913 41.3904 19.4878 41.3904Z" fill="#6963B0"/>
<path d="M81.4245 50.2501H74.4224V43.2211H81.4245V50.2501ZM82.3359 41.3904H73.511C73.0073 41.3904 72.5996 41.7996 72.5996 42.3054V51.1651C72.5996 51.6709 73.0073 52.0817 73.511 52.0817H82.3359C82.8397 52.0817 83.2473 51.6709 83.2473 51.1651V42.3054C83.2473 41.7996 82.8397 41.3904 82.3359 41.3904Z" fill="#6963B0"/>
</svg>
