<svg width="73" height="64" viewBox="0 0 73 64" fill="none" xmlns="http://www.w3.org/2000/svg">
<g clip-path="url(#clip0_110_21194)">
<mask id="mask0_110_21194" style="mask-type:luminance" maskUnits="userSpaceOnUse" x="11" y="24" width="50" height="24">
<path d="M11.7478 24.3977H60.9613V47.2555H11.7478V24.3977Z" fill="white"/>
</mask>
<g mask="url(#mask0_110_21194)">
<mask id="mask1_110_21194" style="mask-type:luminance" maskUnits="userSpaceOnUse" x="11" y="24" width="50" height="24">
<path fill-rule="evenodd" clip-rule="evenodd" d="M39.1253 47.2344H33.5831C33.0437 47.2344 32.6065 46.7968 32.6065 46.2578V25.3745C32.6065 24.8354 33.0437 24.3985 33.5831 24.3985L39.1253 24.3982C39.6645 24.3982 40.1012 24.8354 40.1012 25.3743V46.2578C40.1012 46.7968 39.6639 47.2344 39.1253 47.2344ZM59.9701 47.2344H54.4279C53.8889 47.2344 53.452 46.7968 53.452 46.2578V25.3745C53.452 24.8354 53.8889 24.3985 54.4279 24.3985L59.9701 24.3982C60.5091 24.3982 60.9465 24.8354 60.9465 25.3743V46.2578C60.9465 46.7968 60.5091 47.2344 59.9701 47.2344ZM18.28 47.2344H12.7375C12.1984 47.2344 11.7612 46.7968 11.7612 46.2578V25.3745C11.7612 24.8354 12.1984 24.3985 12.7375 24.3985L18.28 24.3982C18.8195 24.3982 19.2563 24.8354 19.2563 25.3743V46.2578C19.2571 46.7968 18.8195 47.2344 18.28 47.2344Z" fill="white"/>
</mask>
<g mask="url(#mask1_110_21194)">
<path d="M11.7612 47.2344H60.9465V24.3982H11.7612V47.2344Z" fill="url(#paint0_linear_110_21194)"/>
</g>
</g>
<mask id="mask2_110_21194" style="mask-type:luminance" maskUnits="userSpaceOnUse" x="10" y="20" width="53" height="7">
<path d="M10.1199 20.5259H62.5893V26.3558H10.1199V20.5259Z" fill="white"/>
</mask>
<g mask="url(#mask2_110_21194)">
<mask id="mask3_110_21194" style="mask-type:luminance" maskUnits="userSpaceOnUse" x="10" y="20" width="53" height="7">
<path fill-rule="evenodd" clip-rule="evenodd" d="M61.5918 26.3517H52.806C52.2667 26.3517 51.8294 25.9146 51.8294 25.3753V21.523C51.8294 20.9835 52.2667 20.5464 52.806 20.5464H61.5918C62.1315 20.5464 62.5684 20.9835 62.5684 21.523V25.3753C62.5684 25.9139 62.1315 26.3517 61.5918 26.3517ZM40.7473 26.3517H31.9608C31.4215 26.3517 30.9842 25.9146 30.9842 25.3753V21.523C30.9842 20.9835 31.4215 20.5464 31.9608 20.5464H40.7473C41.2863 20.5464 41.7238 20.9835 41.7238 21.523V25.3753C41.7232 25.9139 41.2863 26.3517 40.7473 26.3517ZM19.9019 26.3517H11.116C10.5766 26.3517 10.1394 25.9146 10.1394 25.3753V21.523C10.1394 20.9835 10.5766 20.5464 11.116 20.5464H19.9019C20.441 20.5464 20.8784 20.9835 20.8784 21.523V25.3753C20.8784 25.9139 20.4413 26.3517 19.9019 26.3517Z" fill="white"/>
</mask>
<g mask="url(#mask3_110_21194)">
<path d="M10.1394 26.3517H62.5684V20.5464H10.1394V26.3517Z" fill="url(#paint1_linear_110_21194)"/>
</g>
</g>
<mask id="mask4_110_21194" style="mask-type:luminance" maskUnits="userSpaceOnUse" x="10" y="45" width="53" height="7">
<path d="M10.1199 45.2756H62.5893V51.1056H10.1199V45.2756Z" fill="white"/>
</mask>
<g mask="url(#mask4_110_21194)">
<mask id="mask5_110_21194" style="mask-type:luminance" maskUnits="userSpaceOnUse" x="10" y="45" width="53" height="7">
<path fill-rule="evenodd" clip-rule="evenodd" d="M61.5918 51.0869H52.806C52.2667 51.0869 51.8294 50.65 51.8294 50.1104V46.258C51.8294 45.7188 52.2667 45.2815 52.806 45.2815H61.5918C62.1315 45.2815 62.5684 45.7188 62.5684 46.258V50.1104C62.5684 50.65 62.1315 51.0869 61.5918 51.0869ZM40.7473 51.0869H31.9608C31.4215 51.0869 30.9842 50.65 30.9842 50.1104V46.258C30.9842 45.7188 31.4215 45.2815 31.9608 45.2815H40.7473C41.2863 45.2815 41.7238 45.7188 41.7238 46.258V50.1104C41.7232 50.65 41.2863 51.0869 40.7473 51.0869ZM19.9019 51.0869H11.116C10.5766 51.0869 10.1394 50.65 10.1394 50.1104V46.258C10.1394 45.7188 10.5766 45.2815 11.116 45.2815H19.9019C20.441 45.2815 20.8784 45.7188 20.8784 46.258V50.1104C20.8784 50.65 20.4413 51.0869 19.9019 51.0869Z" fill="white"/>
</mask>
<g mask="url(#mask5_110_21194)">
<path d="M10.1394 51.0869H62.5684V45.2815H10.1394V51.0869Z" fill="url(#paint2_linear_110_21194)"/>
</g>
</g>
<mask id="mask6_110_21194" style="mask-type:luminance" maskUnits="userSpaceOnUse" x="6" y="49" width="61" height="7">
<path d="M6.46802 49.1255H66.2414V55.3954H6.46802V49.1255Z" fill="white"/>
</mask>
<g mask="url(#mask6_110_21194)">
<mask id="mask7_110_21194" style="mask-type:luminance" maskUnits="userSpaceOnUse" x="6" y="49" width="61" height="7">
<path fill-rule="evenodd" clip-rule="evenodd" d="M65.2432 55.3904H7.46452C6.9251 55.3904 6.48828 54.9535 6.48828 54.4146V50.1096C6.48828 49.5706 6.9251 49.1331 7.46452 49.1331H65.2432C65.7825 49.1331 66.2198 49.5706 66.2198 50.1096V54.4146C66.2198 54.9535 65.7825 55.3904 65.2432 55.3904Z" fill="white"/>
</mask>
<g mask="url(#mask7_110_21194)">
<path d="M6.48828 55.3904H66.2198V49.1331H6.48828V55.3904Z" fill="url(#paint3_linear_110_21194)"/>
</g>
</g>
<mask id="mask8_110_21194" style="mask-type:luminance" maskUnits="userSpaceOnUse" x="0" y="53" width="73" height="11">
<path d="M0 53.4375H72.7084V64.0001H0V53.4375Z" fill="white"/>
</mask>
<g mask="url(#mask8_110_21194)">
<mask id="mask9_110_21194" style="mask-type:luminance" maskUnits="userSpaceOnUse" x="0" y="53" width="73" height="11">
<path fill-rule="evenodd" clip-rule="evenodd" d="M4.46089 57.7429V54.4146C4.46089 53.8753 4.8977 53.438 5.43738 53.438H67.2714C67.8105 53.438 68.248 53.8749 68.248 54.4146V57.7429H71.7318C72.2708 57.7429 72.7084 58.1796 72.7084 58.7195V63.0237C72.7084 63.5627 72.2708 64.0001 71.7318 64.0001H0.97624C0.43716 64.0001 0 63.5627 0 63.0237V58.7195C0 58.1796 0.43716 57.7429 0.97624 57.7429H4.46089Z" fill="white"/>
</mask>
<g mask="url(#mask9_110_21194)">
<path d="M0 64.0001H72.7084V53.438H0V64.0001Z" fill="url(#paint4_linear_110_21194)"/>
</g>
</g>
<path fill-rule="evenodd" clip-rule="evenodd" d="M67.0806 22.4995H4.97655C4.54575 22.4995 4.16582 22.2167 4.0413 21.8043C3.91764 21.3913 4.078 20.9465 4.43773 20.7086L35.4895 0.162227C35.8168 -0.0540756 36.2403 -0.0540756 36.5669 0.162227L67.6184 20.7086C67.9779 20.9465 68.1396 21.3918 68.0149 21.8043C67.8919 22.2163 67.5115 22.4995 67.0806 22.4995Z" fill="#E5E5E5"/>
<circle cx="36" cy="13" r="6" fill="#A3A2A3"/>
</g>
<defs>
<linearGradient id="paint0_linear_110_21194" x1="36.3538" y1="47.2344" x2="36.3538" y2="24.3982" gradientUnits="userSpaceOnUse">
<stop stop-color="#AFADAE"/>
<stop offset="0.03125" stop-color="#AFADAE"/>
<stop offset="0.0625" stop-color="#AEACAD"/>
<stop offset="0.09375" stop-color="#ADABAC"/>
<stop offset="0.125" stop-color="#ACABAC"/>
<stop offset="0.15625" stop-color="#ACAAAB"/>
<stop offset="0.1875" stop-color="#ABA9AA"/>
<stop offset="0.21875" stop-color="#AAA9AA"/>
<stop offset="0.25" stop-color="#AAA8A9"/>
<stop offset="0.28125" stop-color="#A9A7A8"/>
<stop offset="0.3125" stop-color="#A8A7A8"/>
<stop offset="0.34375" stop-color="#A7A6A7"/>
<stop offset="0.375" stop-color="#A7A5A6"/>
<stop offset="0.40625" stop-color="#A6A5A6"/>
<stop offset="0.4375" stop-color="#A5A4A5"/>
<stop offset="0.46875" stop-color="#A5A3A4"/>
<stop offset="0.5" stop-color="#A4A3A4"/>
<stop offset="0.53125" stop-color="#A3A2A3"/>
<stop offset="0.5625" stop-color="#A2A2A3"/>
<stop offset="0.59375" stop-color="#A2A1A2"/>
<stop offset="0.625" stop-color="#A1A0A1"/>
<stop offset="0.65625" stop-color="#A0A0A1"/>
<stop offset="0.6875" stop-color="#A09FA0"/>
<stop offset="0.71875" stop-color="#9F9E9F"/>
<stop offset="0.75" stop-color="#9E9E9F"/>
<stop offset="0.78125" stop-color="#9D9D9E"/>
<stop offset="0.8125" stop-color="#9D9C9D"/>
<stop offset="0.84375" stop-color="#9C9C9D"/>
<stop offset="0.875" stop-color="#9B9B9C"/>
<stop offset="0.90625" stop-color="#9B9A9B"/>
<stop offset="0.9375" stop-color="#9A9A9B"/>
<stop offset="0.96875" stop-color="#99999A"/>
<stop offset="1" stop-color="#989899"/>
</linearGradient>
<linearGradient id="paint1_linear_110_21194" x1="36.3539" y1="26.3517" x2="36.3539" y2="20.5464" gradientUnits="userSpaceOnUse">
<stop stop-color="#E5E6E5"/>
<stop offset="0.03125" stop-color="#E5E6E5"/>
<stop offset="0.0625" stop-color="#E4E5E4"/>
<stop offset="0.09375" stop-color="#E3E4E3"/>
<stop offset="0.125" stop-color="#E2E3E2"/>
<stop offset="0.15625" stop-color="#E1E2E1"/>
<stop offset="0.1875" stop-color="#E1E1E0"/>
<stop offset="0.21875" stop-color="#E0E0E0"/>
<stop offset="0.25" stop-color="#DFDFDF"/>
<stop offset="0.28125" stop-color="#DEDFDE"/>
<stop offset="0.3125" stop-color="#DDDEDD"/>
<stop offset="0.34375" stop-color="#DCDDDC"/>
<stop offset="0.375" stop-color="#DCDCDB"/>
<stop offset="0.40625" stop-color="#DBDBDA"/>
<stop offset="0.4375" stop-color="#DADADA"/>
<stop offset="0.46875" stop-color="#D9D9D9"/>
<stop offset="0.5" stop-color="#D8D8D8"/>
<stop offset="0.53125" stop-color="#D8D8D7"/>
<stop offset="0.5625" stop-color="#D7D7D6"/>
<stop offset="0.59375" stop-color="#D6D6D5"/>
<stop offset="0.625" stop-color="#D5D5D5"/>
<stop offset="0.65625" stop-color="#D4D4D4"/>
<stop offset="0.6875" stop-color="#D4D3D3"/>
<stop offset="0.71875" stop-color="#D3D2D2"/>
<stop offset="0.75" stop-color="#D2D1D1"/>
<stop offset="0.78125" stop-color="#D1D1D0"/>
<stop offset="0.8125" stop-color="#D0D0CF"/>
<stop offset="0.84375" stop-color="#CFCFCF"/>
<stop offset="0.875" stop-color="#CFCECE"/>
<stop offset="0.90625" stop-color="#CECDCD"/>
<stop offset="0.9375" stop-color="#CDCCCC"/>
<stop offset="0.96875" stop-color="#CCCBCB"/>
<stop offset="1" stop-color="#CBCACA"/>
</linearGradient>
<linearGradient id="paint2_linear_110_21194" x1="36.3539" y1="51.087" x2="36.3539" y2="45.2815" gradientUnits="userSpaceOnUse">
<stop stop-color="#E5E6E5"/>
<stop offset="0.03125" stop-color="#E5E6E5"/>
<stop offset="0.0625" stop-color="#E4E5E4"/>
<stop offset="0.09375" stop-color="#E3E4E3"/>
<stop offset="0.125" stop-color="#E2E3E2"/>
<stop offset="0.15625" stop-color="#E1E2E1"/>
<stop offset="0.1875" stop-color="#E1E1E0"/>
<stop offset="0.21875" stop-color="#E0E0E0"/>
<stop offset="0.25" stop-color="#DFDFDF"/>
<stop offset="0.28125" stop-color="#DEDFDE"/>
<stop offset="0.3125" stop-color="#DDDEDD"/>
<stop offset="0.34375" stop-color="#DCDDDC"/>
<stop offset="0.375" stop-color="#DCDCDB"/>
<stop offset="0.40625" stop-color="#DBDBDA"/>
<stop offset="0.4375" stop-color="#DADADA"/>
<stop offset="0.46875" stop-color="#D9D9D9"/>
<stop offset="0.5" stop-color="#D8D8D8"/>
<stop offset="0.53125" stop-color="#D8D8D7"/>
<stop offset="0.5625" stop-color="#D7D7D6"/>
<stop offset="0.59375" stop-color="#D6D6D5"/>
<stop offset="0.625" stop-color="#D5D5D5"/>
<stop offset="0.65625" stop-color="#D4D4D4"/>
<stop offset="0.6875" stop-color="#D4D3D3"/>
<stop offset="0.71875" stop-color="#D3D2D2"/>
<stop offset="0.75" stop-color="#D2D1D1"/>
<stop offset="0.78125" stop-color="#D1D1D0"/>
<stop offset="0.8125" stop-color="#D0D0CF"/>
<stop offset="0.84375" stop-color="#CFCFCF"/>
<stop offset="0.875" stop-color="#CFCECE"/>
<stop offset="0.90625" stop-color="#CECDCD"/>
<stop offset="0.9375" stop-color="#CDCCCC"/>
<stop offset="0.96875" stop-color="#CCCBCB"/>
<stop offset="1" stop-color="#CBCACA"/>
</linearGradient>
<linearGradient id="paint3_linear_110_21194" x1="36.354" y1="55.3905" x2="36.354" y2="49.1331" gradientUnits="userSpaceOnUse">
<stop stop-color="#AFADAE"/>
<stop offset="0.03125" stop-color="#AFADAE"/>
<stop offset="0.0625" stop-color="#AEACAD"/>
<stop offset="0.09375" stop-color="#ADABAC"/>
<stop offset="0.125" stop-color="#ACABAC"/>
<stop offset="0.15625" stop-color="#ACAAAB"/>
<stop offset="0.1875" stop-color="#ABA9AA"/>
<stop offset="0.21875" stop-color="#AAA9AA"/>
<stop offset="0.25" stop-color="#AAA8A9"/>
<stop offset="0.28125" stop-color="#A9A7A8"/>
<stop offset="0.3125" stop-color="#A8A7A8"/>
<stop offset="0.34375" stop-color="#A7A6A7"/>
<stop offset="0.375" stop-color="#A7A5A6"/>
<stop offset="0.40625" stop-color="#A6A5A6"/>
<stop offset="0.4375" stop-color="#A5A4A5"/>
<stop offset="0.46875" stop-color="#A5A3A4"/>
<stop offset="0.5" stop-color="#A4A3A4"/>
<stop offset="0.53125" stop-color="#A3A2A3"/>
<stop offset="0.5625" stop-color="#A2A2A3"/>
<stop offset="0.59375" stop-color="#A2A1A2"/>
<stop offset="0.625" stop-color="#A1A0A1"/>
<stop offset="0.65625" stop-color="#A0A0A1"/>
<stop offset="0.6875" stop-color="#A09FA0"/>
<stop offset="0.71875" stop-color="#9F9E9F"/>
<stop offset="0.75" stop-color="#9E9E9F"/>
<stop offset="0.78125" stop-color="#9D9D9E"/>
<stop offset="0.8125" stop-color="#9D9C9D"/>
<stop offset="0.84375" stop-color="#9C9C9D"/>
<stop offset="0.875" stop-color="#9B9B9C"/>
<stop offset="0.90625" stop-color="#9B9A9B"/>
<stop offset="0.9375" stop-color="#9A9A9B"/>
<stop offset="0.96875" stop-color="#99999A"/>
<stop offset="1" stop-color="#989899"/>
</linearGradient>
<linearGradient id="paint4_linear_110_21194" x1="36.3542" y1="64.0001" x2="36.3542" y2="53.438" gradientUnits="userSpaceOnUse">
<stop stop-color="#6D6E6E"/>
<stop offset="0.0625" stop-color="#6D6E6E"/>
<stop offset="0.125" stop-color="#6C6D6D"/>
<stop offset="0.1875" stop-color="#6B6C6C"/>
<stop offset="0.25" stop-color="#6A6B6B"/>
<stop offset="0.3125" stop-color="#696A6A"/>
<stop offset="0.375" stop-color="#686969"/>
<stop offset="0.4375" stop-color="#676868"/>
<stop offset="0.5" stop-color="#666767"/>
<stop offset="0.5625" stop-color="#656666"/>
<stop offset="0.625" stop-color="#646565"/>
<stop offset="0.6875" stop-color="#636464"/>
<stop offset="0.75" stop-color="#626363"/>
<stop offset="0.8125" stop-color="#616262"/>
<stop offset="0.875" stop-color="#606161"/>
<stop offset="0.9375" stop-color="#5F6060"/>
<stop offset="1" stop-color="#5E5F5F"/>
</linearGradient>
<clipPath id="clip0_110_21194">
<rect width="72.7084" height="64" fill="white"/>
</clipPath>
</defs>
</svg>
