<svg width="80" height="96" viewBox="0 0 80 96" fill="none" xmlns="http://www.w3.org/2000/svg">
<g style="mix-blend-mode:multiply">
<g style="mix-blend-mode:multiply">
<path d="M39.7838 96C61.7558 96 79.5676 91.2956 79.5676 85.4923C79.5676 79.6891 61.7558 74.9847 39.7838 74.9847C17.8118 74.9847 0 79.6891 0 85.4923C0 91.2956 17.8118 96 39.7838 96Z" fill="url(#paint0_radial_7716_3802)" fill-opacity="0.15"/>
</g>
</g>
<path d="M1.9892 66.7054V29.1501C2.00119 28.4889 2.53058 27.9566 3.18816 27.9446H59.8162C60.4738 27.9566 61.0032 28.4889 61.0152 29.1501V66.7054H1.9892Z" fill="#415E72"/>
<path d="M61.0152 66.7054V71.5274C61.0032 72.1885 60.4738 72.7208 59.8162 72.7329H3.18816C2.53058 72.7208 2.00119 72.1885 1.9892 71.5274V66.7054H61.0152Z" fill="#CFDCE5"/>
<path d="M44.1372 81.2639H18.8667V82.4694H44.1372V81.2639Z" fill="#CFDCE5"/>
<path d="M39.8948 81.2639H23.1093L24.3083 72.7328H38.6958L39.8948 81.2639Z" fill="#AEC4CE"/>
<path d="M58.6172 30.3555H4.38707V64.2945H58.6172V30.3555Z" fill="white"/>
<path d="M38.6962 72.7328H24.3086L23.639 77.4945L38.912 74.2657L38.6962 72.7328Z" fill="#94A7AF"/>
<path d="M42.7863 35.5558C38.3677 35.5558 34.7855 39.1574 34.7855 43.6001C34.7855 48.0427 38.3677 51.6443 42.7863 51.6443C47.2031 51.6443 50.7843 48.0464 50.7871 43.6056H42.7863V35.5558Z" fill="#E04F5F"/>
<path d="M49.8094 36.5443L44.1494 42.2351H52.1501V42.2249C52.1511 40.0939 51.309 38.0502 49.8094 36.5443Z" fill="#25B6D2"/>
<path d="M44.1484 34.1862V42.2369L49.8084 36.5461C48.3097 35.0328 46.2724 34.1825 44.1484 34.1862Z" fill="#CFDCE5"/>
<path d="M28.1743 42.6301H8.0704V43.5574H28.1743V42.6301Z" fill="#AAC1CE"/>
<path d="M23.6062 46.1279H8.07039V47.0552H23.6062V46.1279Z" fill="#AAC1CE"/>
<path d="M53.4416 53.7958C55.3373 52.0612 58.2521 52.1992 59.9773 54.1052L70.5079 65.7397C72.2331 67.6458 72.0954 70.5762 70.2001 72.3108C68.3044 74.0454 65.3896 73.9073 63.6644 72.0012L53.1338 60.3669C51.4086 58.4608 51.5458 55.5302 53.4416 53.7958Z" fill="#009CE9"/>
<path d="M29.3709 27.2018C25.4741 30.7671 23.1459 35.7432 22.8977 41.0346C22.6499 46.3266 24.503 51.5003 28.0494 55.4183C31.5953 59.3363 36.5446 61.6777 41.8074 61.9268C47.0708 62.1763 52.2166 60.3131 56.1134 56.7475C60.0102 53.1819 62.3389 48.2061 62.5866 42.9143C62.8348 37.6227 60.9817 32.449 57.4354 28.531C53.8893 24.6126 48.9402 22.2717 43.6772 22.0221C38.4139 21.773 33.2682 23.6362 29.3709 27.2018ZM32.5738 30.7399C35.5374 28.0285 39.4506 26.6118 43.4532 26.8012C47.4558 26.9907 51.2194 28.7715 53.9161 31.7509C56.613 34.7303 58.0222 38.665 57.8337 42.6894C57.6453 46.7137 55.8745 50.4975 52.9109 53.2091C49.9473 55.9206 46.0341 57.3375 42.0315 57.148C38.029 56.9586 34.2656 55.1778 31.5686 52.1984C28.8716 49.2188 27.4626 45.2843 27.6509 41.26C27.8394 37.2356 29.6101 33.4518 32.5738 30.7399Z" fill="#037DBD"/>
<path d="M56.3671 65.15C56.495 65.3436 56.6393 65.5301 56.8003 65.7075L67.2621 77.266C68.9757 79.1595 71.8719 79.2967 73.755 77.5735L75.077 76.3639C76.9601 74.6409 77.0966 71.7294 75.3826 69.8356L64.9208 58.2772C64.7603 58.0997 64.5893 57.9375 64.4098 57.7913L56.3671 65.15Z" fill="#037DBD"/>
<path d="M64.1623 60.4914C64.4334 60.2493 64.8456 60.2736 65.0863 60.5462L71.7216 68.0586C71.9623 68.3312 71.9378 68.7452 71.6667 68.9872C71.3956 69.2293 70.9839 69.2049 70.7432 68.9324L64.1078 61.4199C63.867 61.1474 63.8915 60.7331 64.1623 60.4914Z" fill="#049DEE"/>
<path d="M74.1944 71.8491C74.4652 71.607 74.4897 71.1932 74.2494 70.9205L73.0246 69.5343C72.7842 69.2616 72.3722 69.2374 72.1011 69.4791C71.8303 69.7211 71.8058 70.1354 72.0465 70.4081L73.2709 71.7939C73.5116 72.0666 73.9234 72.0913 74.1944 71.8491Z" fill="#049DEE"/>
<defs>
<radialGradient id="paint0_radial_7716_3802" cx="0" cy="0" r="1" gradientUnits="userSpaceOnUse" gradientTransform="translate(39.7838 85.4937) rotate(-90) scale(10.5082 39.784)">
<stop stop-color="#729EB1"/>
<stop offset="0.1529" stop-color="#7DA4B4"/>
<stop offset="0.7013" stop-color="#9EB8BF"/>
<stop offset="1" stop-color="#ABC0C3"/>
</radialGradient>
</defs>
</svg>
