<svg width="64" height="64" viewBox="0 0 64 64" fill="none" xmlns="http://www.w3.org/2000/svg">
<path d="M46.7538 4.04248H16.3633C15.2306 4.04248 14.3124 4.96073 14.3124 6.09336V31.9255C14.3124 33.0581 15.2306 33.9764 16.3633 33.9764H46.7539C47.8865 33.9764 48.8048 33.0581 48.8048 31.9255V6.09336C48.8046 4.96073 47.8864 4.04248 46.7538 4.04248Z" fill="#7E604A"/>
<path d="M31.5585 4.04248H16.3633C15.2306 4.04248 14.3124 4.96073 14.3124 6.09336V31.9255C14.3124 33.0581 15.2306 33.9764 16.3633 33.9764H31.5585V4.04248Z" fill="#AC825A"/>
<path d="M31.5584 10.1065C32.6911 10.1065 33.6093 9.18823 33.6093 8.05561V4.04248H29.5077V8.05561C29.5076 9.18823 30.4258 10.1065 31.5584 10.1065Z" fill="#FF9900"/>
<path d="M31.5584 10.1065V4.04248H29.5076V8.05561C29.5076 9.18823 30.4258 10.1065 31.5584 10.1065Z" fill="#FAD52A"/>
<path d="M32.4415 30.0238H2.05087C0.91825 30.0238 0 30.9421 0 32.0747V57.9068C0 59.0394 0.91825 59.9576 2.05087 59.9576H32.4415C33.5741 59.9576 34.4924 59.0393 34.4924 57.9067V32.0747C34.4922 30.9421 33.5741 30.0238 32.4415 30.0238Z" fill="#FF9900"/>
<path d="M17.2461 30.0238H2.05087C0.91825 30.0238 0 30.9421 0 32.0747V57.9068C0 59.0394 0.91825 59.9576 2.05087 59.9576H17.2461V30.0238Z" fill="#FAD52A"/>
<path d="M17.2462 36.0878C18.3788 36.0878 19.2971 35.1696 19.2971 34.0369V30.0238H15.1954V34.0369C15.1953 35.1696 16.1136 36.0878 17.2462 36.0878Z" fill="#7E604A"/>
<path d="M17.2461 36.0878V30.0238H15.1952V34.0369C15.1952 35.1696 16.1134 36.0878 17.2461 36.0878Z" fill="#AC825A"/>
<path d="M61.9491 30.0238H31.5584C30.4258 30.0238 29.5076 30.9421 29.5076 32.0747V57.9068C29.5076 59.0394 30.4258 59.9577 31.5584 59.9577H61.9491C63.0817 59.9577 63.9999 59.0394 63.9999 57.9068V32.0747C63.9999 30.9421 63.0817 30.0238 61.9491 30.0238Z" fill="#D83249"/>
<path d="M46.7537 30.0238H31.5584C30.4258 30.0238 29.5076 30.9421 29.5076 32.0747V57.9068C29.5076 59.0394 30.4258 59.9577 31.5584 59.9577H46.7537V30.0238Z" fill="#FF4F59"/>
<path d="M46.7538 36.0878C47.8864 36.0878 48.8046 35.1696 48.8046 34.0369V30.0238H44.703V34.0369C44.703 35.1696 45.6211 36.0878 46.7538 36.0878Z" fill="#FF9900"/>
<path d="M46.7538 36.0878V30.0238H44.7029V34.0369C44.703 35.1696 45.6211 36.0878 46.7538 36.0878Z" fill="#FAD52A"/>
</svg>
