<svg width="64" height="64" viewBox="0 0 64 64" fill="none" xmlns="http://www.w3.org/2000/svg">
<path d="M6.04451 60.4889C7.41906 60.4889 8.53335 59.3746 8.53335 58.0001C8.53335 56.6255 7.41906 55.5112 6.04451 55.5112C4.66996 55.5112 3.55566 56.6255 3.55566 58.0001C3.55566 59.3746 4.66996 60.4889 6.04451 60.4889Z" fill="#56ACE0"/>
<path d="M60.4445 29.8223C60.4445 28.4889 59.2889 27.3335 57.9556 27.3335C56.6224 27.3335 55.4668 28.4891 55.4668 29.8223C55.4668 31.1557 56.6224 32.3112 57.9556 32.3112C59.2889 32.3112 60.4445 31.2444 60.4445 29.8223Z" fill="white"/>
<path d="M45.8668 3.59985C42.7557 3.59985 40.2668 6.0887 40.2668 9.19982C40.2668 11.3332 43.2891 17.2888 45.8668 21.7331C48.4446 17.1998 51.4668 11.3332 51.4668 9.19982C51.4668 6.08883 48.9779 3.59985 45.8668 3.59985Z" fill="#FFC10D"/>
<path d="M57.9556 23.7778C55.2001 23.7778 52.8889 25.5556 52.1778 28.0445H16.2667C11.3779 28.0445 7.46666 31.9556 7.46666 36.8446C7.46666 41.7336 11.3777 45.6446 16.2667 45.6446H47.7334C50.6667 45.6446 52.9779 48.0446 52.9779 50.8891C52.9779 53.8224 50.5779 56.1336 47.7334 56.1336H11.8222C11.0222 53.6447 8.71108 51.8669 6.04443 51.8669C2.66666 51.8668 0 54.6224 0 57.9112C0 61.289 2.7555 63.9556 6.04443 63.9556C8.79993 63.9556 11.1111 62.1779 11.8222 59.6889H47.7333C52.6221 59.6889 56.5333 55.7778 56.5333 50.8889C56.5333 45.9999 52.6223 42.0888 47.7333 42.0888H16.2667C13.3334 42.0888 11.0222 39.6888 11.0222 36.8443C11.0222 33.911 13.4222 31.5999 16.2667 31.5999H52.1778C52.9778 34.0887 55.2001 35.8666 57.9556 35.8666C61.3333 35.8666 64 33.1111 64 29.8221C64 26.5332 61.2445 23.7778 57.9556 23.7778ZM6.04443 60.489C4.71104 60.489 3.55558 59.3334 3.55558 58.0002C3.55558 56.6668 4.71116 55.5113 6.04443 55.5113C7.37769 55.5113 8.53327 56.6669 8.53327 58.0002C8.5334 59.3334 7.46666 60.489 6.04443 60.489ZM57.9556 32.3112C56.6222 32.3112 55.4667 31.1557 55.4667 29.8224C55.4667 28.489 56.6223 27.3335 57.9556 27.3335C59.2888 27.3335 60.4444 28.4891 60.4444 29.8224C60.4445 31.2445 59.289 32.3112 57.9556 32.3112Z" fill="#194F82"/>
<path d="M47.1553 23.2536C48.1068 21.6635 53 13.4363 53 10.0487C53 6.10797 49.8738 2.92773 46 2.92773C42.1262 2.92773 39 6.10797 39 10.0487C39 13.4363 43.8932 21.6635 44.8447 23.2536C45.3884 24.1524 46.6116 24.1524 47.1553 23.2536ZM46 5.69318C48.3787 5.69318 50.2815 7.62895 50.2815 10.0487C50.2815 11.708 47.9708 16.3401 46 19.7968C44.0291 16.2709 41.7185 11.708 41.7185 10.0487C41.7185 7.62904 43.6214 5.69318 46 5.69318Z" fill="#FFC10D"/>
<path d="M46 13.9277C48.2091 13.9277 50 12.1369 50 9.92773C50 7.7186 48.2091 5.92773 46 5.92773C43.7909 5.92773 42 7.7186 42 9.92773C42 12.1369 43.7909 13.9277 46 13.9277Z" fill="#194F82"/>
</svg>
