<svg width="64" height="64" viewBox="0 0 64 64" fill="none" xmlns="http://www.w3.org/2000/svg">
<path d="M64 44.1533H13.3633V11.9992C13.3633 10.3346 14.7128 8.98511 16.3774 8.98511H60.9859C62.6505 8.98511 64 10.3346 64 11.9992V44.1533Z" fill="#E6E6E6"/>
<path d="M38.4799 8.98511H16.3774C14.7128 8.98511 13.3633 10.3346 13.3633 11.9992V44.1535H38.4799V8.98511Z" fill="#BFC0C0"/>
<path d="M64 14.8141V11.999C64 10.3344 62.6505 8.98486 60.9859 8.98486H16.3774C14.7128 8.98486 13.3633 10.3344 13.3633 11.999V14.8141H64Z" fill="#F8B242"/>
<path d="M50.6367 55.015H0V22.8609C0 21.1963 1.34951 19.8468 3.01409 19.8468H47.6226C49.2872 19.8468 50.6367 21.1963 50.6367 22.8609V55.015Z" fill="#32A5B9"/>
<path d="M50.6367 25.6761V22.8609C50.6367 21.1963 49.2872 19.8468 47.6226 19.8468H3.01409C1.34951 19.8468 0 21.1963 0 22.8609V25.6761H50.6367Z" fill="#1C7287"/>
<path d="M38.4799 8.98486H16.3774C14.7128 8.98486 13.3633 10.3344 13.3633 11.999V14.8141H38.4799V8.98486Z" fill="#D09838"/>
<path d="M38.4799 19.8468H3.01409C1.34951 19.8468 0 21.1963 0 22.8609V55.0152H38.4799V19.8468Z" fill="#2B8A9A"/>
<path d="M38.4799 19.8468H3.01409C1.34951 19.8468 0 21.1963 0 22.8609V25.6761H38.4799V19.8468Z" fill="#165C6C"/>
</svg>
