<svg width="600" height="139" viewBox="0 0 600 139" fill="none" xmlns="http://www.w3.org/2000/svg">
<g clip-path="url(#clip0_6_66)">
<mask id="mask0_6_66" style="mask-type:luminance" maskUnits="userSpaceOnUse" x="0" y="0" width="600" height="139">
<path d="M600 0.00088501H0.00292969V138H600V0.00088501Z" fill="white"/>
</mask>
<g mask="url(#mask0_6_66)">
<path d="M37.2075 0.00277029H99.3417V19.7301H37.2075C27.7343 19.5966 19.9464 27.1361 19.8124 36.5698C19.8101 36.7314 19.8101 36.8932 19.8124 37.055V41.8617C19.6773 51.2956 27.2472 59.0522 36.7204 59.1867C36.8821 59.189 37.0438 59.189 37.2054 59.1867H65.7136C75.5979 59.0647 85.0928 63.0171 91.9498 70.1076C99.0699 76.9361 103.039 86.3916 102.916 96.2348V100.95C103.039 110.793 99.0699 120.249 91.9498 127.077C85.0937 134.169 75.5985 138.123 65.7136 138.002H3.57733V118.271H65.7136C75.1891 118.4 82.9762 110.856 83.1067 101.42C83.1087 101.263 83.1087 101.106 83.1067 100.95V96.2348C83.23 86.7916 75.6429 79.0368 66.1605 78.914C66.0116 78.9121 65.8625 78.9121 65.7136 78.914H37.2075C27.3212 79.036 17.8243 75.0801 10.9693 67.9847C3.85039 61.1574 -0.118435 51.7035 0.00280988 41.8617V37.055C-0.120948 27.2104 3.84808 17.7529 10.9693 10.9237C17.8266 3.8327 27.3226 -0.119848 37.2075 0.00277029Z" fill="black"/>
<path d="M272.608 0.00291585H307.107C316.978 -0.12429 326.459 3.83013 333.293 10.9238C340.389 17.766 344.339 27.218 344.214 37.0531V138.002H324.498V37.0552C324.631 27.619 317.058 19.8624 307.582 19.7302C307.423 19.7279 307.264 19.7279 307.105 19.7302H272.608C263.135 19.598 255.348 27.1384 255.215 36.5722C255.213 36.7332 255.213 36.8942 255.215 37.0552V138.002H235.406V37.0552C235.281 27.2109 239.25 17.7535 246.37 10.9238C253.227 3.83285 262.723 -0.119702 272.608 0.00291585Z" fill="black"/>
<path d="M419.392 0.00292969L478.822 138.002H457.273L419.392 50.051L381.609 138.002H360.059L419.392 0.00292969Z" fill="black"/>
<path d="M494.567 0.00290684H550.518C557.111 -0.0183636 563.639 1.30812 569.697 3.9004C581.628 8.85078 591.111 18.2946 596.082 30.1756C601.3 42.3801 601.3 56.1746 596.082 68.379C591.11 80.2594 581.627 89.7028 569.697 94.6542C563.639 97.2472 557.112 98.5743 550.518 98.5538H514.383V138.008H494.567V78.9141H550.518C558.435 79.0741 566.064 75.9544 571.584 70.2996C577.232 64.7674 580.343 57.163 580.184 49.2752C580.35 33.1235 567.337 19.8958 551.118 19.7302C550.92 19.7281 550.722 19.7281 550.524 19.7302H494.567V0.00290684Z" fill="black"/>
<path d="M117.895 0.100922H141.668L177.229 53.2186L212.889 0.100922H236.658L177.227 88.7277L117.895 0.100922ZM167.371 108.463H187.18V138H167.371V108.463Z" fill="#23B217"/>
<path d="M187.18 108.457H167.371V138H187.18V108.457Z" fill="#23B217"/>
<path d="M514.383 13.6035H494.574V84.8532H514.383V13.6035Z" fill="#040506"/>
</g>
</g>
<defs>
<clipPath id="clip0_6_66">
<rect width="600" height="138.008" fill="white"/>
</clipPath>
</defs>
</svg>
