<svg width="82" height="67" viewBox="0 0 82 67" fill="none" xmlns="http://www.w3.org/2000/svg">
<rect x="15.2228" width="66.6836" height="57.3883" rx="5" fill="black"/>
<path d="M16.3004 4.94299C16.3004 2.73385 18.0913 0.942993 20.3004 0.942993H76.8286C79.0377 0.942993 80.8286 2.73385 80.8286 4.94299V10.6424H16.3004V4.94299Z" fill="#A4D47F"/>
<rect x="16.3004" y="11.316" width="64.5282" height="10.7771" fill="#F5F5F5"/>
<rect x="16.3004" y="22.7667" width="64.5282" height="10.7771" fill="#F5F5F5"/>
<rect x="16.3004" y="34.2174" width="64.5282" height="10.7771" fill="#F5F5F5"/>
<path d="M16.3004 45.6682H80.8286V52.4454C80.8286 54.6545 79.0377 56.4454 76.8286 56.4454H20.3004C18.0913 56.4454 16.3004 54.6545 16.3004 52.4454V45.6682Z" fill="#F5F5F5"/>
<rect x="59.6111" y="0.942993" width="0.673572" height="55.5023" fill="#2D2D2D"/>
<rect x="37.0465" y="0.942993" width="0.673572" height="55.5023" fill="#2D2D2D"/>
<rect y="38.4609" width="47.15" height="13.4714" rx="3" fill="#D9D9D9"/>
<rect x="5.05176" y="43.1759" width="1.75129" height="4.04143" rx="0.875643" fill="#2D2D2D"/>
<rect x="9.36267" y="43.1759" width="1.75129" height="4.04143" rx="0.875643" fill="#2D2D2D"/>
<rect x="13.6735" y="43.1759" width="1.75129" height="4.04143" rx="0.875643" fill="#2D2D2D"/>
<rect x="17.9844" y="43.1759" width="1.75129" height="4.04143" rx="0.875643" fill="#2D2D2D"/>
<rect x="41.9635" y="44.321" width="1.75129" height="19.2642" rx="0.875644" transform="rotate(90 41.9635 44.321)" fill="#2D2D2D"/>
<rect y="52.6733" width="47.15" height="13.4714" rx="3" fill="#D9D9D9"/>
<rect x="5.05176" y="57.3883" width="1.75129" height="4.04143" rx="0.875643" fill="#2D2D2D"/>
<rect x="9.36267" y="57.3883" width="1.75129" height="4.04143" rx="0.875643" fill="#2D2D2D"/>
<rect x="13.6735" y="57.3883" width="1.75129" height="4.04143" rx="0.875643" fill="#2D2D2D"/>
<rect x="17.9844" y="57.3883" width="1.75129" height="4.04143" rx="0.875643" fill="#2D2D2D"/>
<rect x="41.9635" y="58.5334" width="1.75129" height="19.2642" rx="0.875644" transform="rotate(90 41.9635 58.5334)" fill="#2D2D2D"/>
</svg>
