<svg width="64" height="64" viewBox="0 0 64 64" fill="none" xmlns="http://www.w3.org/2000/svg">
<path d="M2.83228 13.1775L13.1745 2.83508L22.5418 12.2023L12.1995 22.5446L2.83228 13.1775Z" fill="#A2E62E"/>
<path d="M14.2365 26.2281C12.658 27.8066 10.0986 27.8066 8.51996 26.2281L3.43496 21.1431C1.06921 18.7773 1.06921 14.9417 3.43496 12.5759L4.86783 11.1431L14.2365 20.5117C15.8151 22.0901 15.8151 24.6494 14.2365 26.2281Z" fill="#BBEC6C"/>
<path d="M15.1116 24.9214C14.9089 25.4104 14.6118 25.8545 14.2372 26.2285C12.6584 27.8072 10.0984 27.8072 8.51968 26.2285L3.43568 21.1432C1.0688 18.7777 1.0688 14.9416 3.43568 12.576L4.86768 11.1427L4.93468 11.2097C3.28118 13.5727 3.50918 16.8499 5.6198 18.9592L10.7037 24.0445C11.8948 25.2357 13.6448 25.5281 15.1116 24.9214Z" fill="#A2E62E"/>
<path d="M13.1732 61.1719L2.83093 50.8295L12.1981 41.4624L22.5404 51.8046L13.1732 61.1719Z" fill="#5F99D7"/>
<path d="M26.2279 49.7635C27.8064 51.342 27.8064 53.9013 26.2279 55.48L21.1429 60.565C18.7772 62.9307 14.9416 62.9307 12.5758 60.565L11.1429 59.1321L20.5116 49.7635C22.0901 48.185 24.6494 48.185 26.2279 49.7635Z" fill="#7BACDF"/>
<path d="M26.9765 50.7953C25.4595 50.0227 23.5562 50.2725 22.2891 51.541L12.9338 60.895C12.8099 60.7902 12.6904 60.6803 12.5758 60.5653L11.1426 59.1321L20.5108 49.7626C22.0896 48.1851 24.6496 48.1851 26.2283 49.7626C26.5314 50.0646 26.784 50.4133 26.9765 50.7953Z" fill="#5F99D7"/>
<path d="M50.8184 2.82812L61.1607 13.1705L51.7937 22.5375L41.4512 12.1954L50.8184 2.82812Z" fill="#DEDBEE"/>
<path d="M37.7719 14.2366C36.1934 12.6581 36.1934 10.0987 37.7719 8.52008L42.8569 3.43508C45.2226 1.06933 49.0583 1.06933 51.424 3.43508L52.8569 4.86795L43.4883 14.2366C41.9098 15.8151 39.3504 15.8151 37.7719 14.2366Z" fill="#FAF7F7"/>
<path d="M39.0788 15.1108C38.5899 14.9082 38.1457 14.611 37.7718 14.2364C36.1931 12.6577 36.1931 10.0977 37.7718 8.51895L42.8571 3.43495C45.2226 1.06807 49.0587 1.06807 51.4243 3.43495L52.8576 4.86695L52.7906 4.93395C50.4276 3.28045 47.1503 3.50845 45.0411 5.61907L39.9558 10.7029C38.7646 11.8941 38.4722 13.6442 39.0788 15.1108Z" fill="#DEDBEE"/>
<path d="M61.1759 50.8227L50.8337 61.1649L41.4664 51.7977L51.8087 41.4554L61.1759 50.8227Z" fill="#FD4755"/>
<path d="M49.7634 37.772C51.3419 36.1935 53.9013 36.1935 55.4799 37.772L60.5649 42.857C62.9307 45.2228 62.9307 49.0584 60.5649 51.4241L59.1321 52.857L49.7634 43.4884C48.1848 41.9099 48.1848 39.3506 49.7634 37.772Z" fill="#FE646F"/>
<path d="M50.7952 37.0236C50.0226 38.5406 50.2723 40.4438 51.5408 41.7109L60.8948 51.0662C60.7901 51.1902 60.6802 51.3096 60.5652 51.4242L59.132 52.8574L49.7623 43.4892C48.1848 41.9104 48.1848 39.3504 49.7623 37.7717C50.0643 37.4686 50.4131 37.216 50.7952 37.0236Z" fill="#FD4755"/>
<path d="M29.6255 2.5962L2.59608 29.6255C1.28471 30.9368 1.28471 33.0631 2.59608 34.3745L29.6255 61.4038C30.9368 62.7152 33.0631 62.7152 34.3745 61.4038L61.4038 34.3745C62.7152 33.0631 62.7152 30.9368 61.4038 29.6255L34.3745 2.5962C33.0631 1.28483 30.9368 1.28483 29.6255 2.5962Z" fill="#B98080"/>
<path d="M8.4012 34.3733L34.9026 60.8747L34.3746 61.4027C33.0637 62.7148 30.9363 62.7148 29.6254 61.4027L2.59607 34.3733C1.2852 33.0624 1.2852 30.9364 2.59607 29.6254L29.6254 2.59615C30.9363 1.28403 33.0637 1.28403 34.3746 2.59615L34.9026 3.12415L8.4012 29.6254C7.09032 30.9364 7.09032 33.0624 8.4012 34.3733Z" fill="#AE6C6C"/>
<path d="M32.4128 26.9674L40.2123 34.7669L29.7977 45.1815L21.9982 37.382L32.4128 26.9674Z" fill="#DEDBEE"/>
<path d="M22.67 28.9717L30.4695 36.7713L20.0549 47.1859L12.2554 39.3863L22.67 28.9717Z" fill="#FAF7F7"/>
<path d="M35.9812 47.9728C34.4027 49.5513 34.4027 52.1107 35.9812 53.6893L42.8569 60.5649C45.2226 62.9307 49.0582 62.9307 51.424 60.5649L52.8569 59.1321L41.6976 47.9728C40.1191 46.3943 37.5597 46.3943 35.9812 47.9728Z" fill="#FE646F"/>
<path d="M37.0114 47.2262C36.2401 48.7432 36.4899 50.6438 37.7583 51.9122L44.6334 58.7873C46.8831 61.0383 50.4617 61.1491 52.8427 59.1183L52.8568 59.1324L51.4236 60.5657C49.0581 62.9312 45.2219 62.9312 42.8563 60.5657L35.9812 53.6892C34.4024 52.1104 34.4024 49.5517 35.9812 47.9729C36.2824 47.6705 36.6303 47.4184 37.0114 47.2262Z" fill="#FD4755"/>
<path d="M50.391 61.6651C47.2776 58.5517 47.2778 53.5044 50.391 50.3912C53.5044 47.2778 58.5515 47.2778 61.6649 50.3912C61.785 50.5108 61.9009 50.6346 62.0123 50.7624C60.9526 52.4258 62.013 57.6774 59.8451 59.8453C57.6785 62.0119 52.4921 60.6876 50.7611 62.0113C50.6338 61.9003 50.5103 61.7848 50.391 61.6651Z" fill="#FFDFCF"/>
<path d="M58.0181 60.8409C55.538 61.553 52.1061 60.9825 50.7605 62.0114C50.6335 61.9 50.5103 61.7845 50.391 61.665C47.2772 58.5513 47.2772 53.5047 50.391 50.391C50.9122 49.8686 51.5033 49.4209 52.1475 49.0608C50.4516 52.0959 50.8945 56.0029 53.4739 58.5809C53.5929 58.7007 53.7162 58.8163 53.8435 58.9273C55.0539 59.9962 56.5115 60.6337 58.0181 60.8409Z" fill="#FFCEBF"/>
<path d="M50.761 62.0112C50.8887 59.1736 52.0384 56.3718 54.205 54.2052C56.3729 52.0373 59.1734 50.889 62.0122 50.7625C64.7734 53.8937 64.6576 58.6723 61.6649 61.6651C58.6721 64.6578 53.8911 64.7736 50.761 62.0112Z" fill="#FFD15B"/>
<path d="M62.9939 59.9087C62.6346 60.5531 62.1874 61.1443 61.665 61.6652C58.671 64.6579 53.891 64.7737 50.7605 62.0116C50.8404 60.2449 51.3155 58.491 52.186 56.8967C52.5379 57.5133 52.971 58.0799 53.4737 58.5811C53.5928 58.7009 53.7161 58.8165 53.8434 58.9275C56.415 61.1965 60.1004 61.5249 62.9939 59.9087Z" fill="#FFC344"/>
<path d="M47.9728 28.0187C49.5513 29.5972 52.1107 29.5972 53.6893 28.0187L60.5649 21.1431C62.9307 18.7773 62.9307 14.9417 60.5649 12.5759L59.132 11.1431L47.9728 22.3023C46.3942 23.8808 46.3942 26.4401 47.9728 28.0187Z" fill="#FAF7F7"/>
<path d="M49.2814 28.8933C48.792 28.6902 48.3474 28.3926 47.973 28.0177C46.3943 26.439 46.3943 23.8802 47.973 22.3015L59.1324 11.1421L60.5656 12.5753C60.8178 12.8266 61.047 13.0998 61.2506 13.3917L50.1569 24.4855C48.9645 25.678 48.6735 27.428 49.2814 28.8933Z" fill="#DEDBEE"/>
<path d="M61.6649 13.6089C58.5515 16.7223 53.5043 16.7223 50.391 13.6089C47.2778 10.4955 47.2776 5.44842 50.391 2.33505C50.5106 2.21493 50.6345 2.09906 50.7623 1.98767C52.4256 3.0473 57.6773 1.98692 59.8451 4.1548C62.0118 6.32142 60.6874 11.5078 62.0111 13.2388C61.9001 13.3662 61.7846 13.4896 61.6649 13.6089Z" fill="#D78878"/>
<path d="M51.9375 14.8154C51.3742 14.4785 50.8548 14.0732 50.391 13.6088C47.2772 10.4951 47.2772 5.44856 50.391 2.33481C50.5105 2.21456 50.6342 2.09857 50.7619 1.98706C51.9157 2.72231 54.7925 2.43781 57.1721 2.91681C55.8149 3.19427 54.5543 3.823 53.5162 4.74019C53.3885 4.85201 53.2644 4.96794 53.1441 5.08781C50.5056 7.72656 50.1025 11.7533 51.9375 14.8154Z" fill="#CA6E59"/>
<path d="M62.0112 13.2389C59.1736 13.1111 56.3718 11.9615 54.2052 9.79488C52.0373 7.62701 50.889 4.82651 50.7625 1.98763C53.8937 -0.773493 58.6723 -0.657743 61.6651 2.33501C64.6577 5.32776 64.7734 10.1089 62.0112 13.2389Z" fill="#7A6D79"/>
<path d="M51.9415 6.62824C51.2255 5.16411 50.8327 3.58149 50.762 1.98724C53.8937 -0.773638 58.6725 -0.657763 61.6651 2.33499C62.1294 2.79889 62.5347 3.31831 62.8717 3.88149C59.9498 2.13149 56.1498 2.41736 53.5165 4.74036C52.8964 5.28384 52.365 5.9208 51.9415 6.62824Z" fill="#685E68"/>
<path d="M16.0271 35.9814C14.4486 34.4029 11.8892 34.4029 10.3106 35.9814L3.43496 42.8571C1.06921 45.2229 1.06921 49.0585 3.43496 51.4242L4.86783 52.8571L16.0271 41.6979C17.6057 40.1192 17.6057 37.56 16.0271 35.9814Z" fill="#7BACDF"/>
<path d="M16.7738 37.0116C15.2568 36.2402 13.3562 36.4901 12.0878 37.7584L5.21266 44.6336C2.96166 46.8832 2.85091 50.4618 4.88166 52.8428L4.86753 52.8569L3.43416 51.4237C1.06866 49.0582 1.06866 45.2221 3.43416 42.8564L10.3107 35.9813C11.8894 34.4026 14.4482 34.4026 16.0269 35.9813C16.3294 36.2825 16.5816 36.6304 16.7738 37.0116Z" fill="#5F99D7"/>
<path d="M2.3349 50.3911C5.44827 47.2777 10.4955 47.2777 13.6088 50.3911C16.7221 53.5044 16.7221 58.5516 13.6088 61.6649C13.4891 61.7851 13.3653 61.9009 13.2375 62.0123C11.5741 60.9527 6.32252 62.0131 4.15465 59.8452C1.98802 57.6786 3.3124 52.4922 1.98865 50.7612C2.0997 50.6338 2.21518 50.5103 2.3349 50.3911Z" fill="#FFDFCF"/>
<path d="M3.15903 58.0182C2.4469 55.5381 3.0174 52.1062 1.98853 50.7606C2.09994 50.6337 2.21546 50.5105 2.3349 50.3911C5.44865 47.2773 10.4953 47.2773 13.6089 50.3911C14.1314 50.9123 14.579 51.5034 14.9392 52.1476C11.904 50.4517 7.99703 50.8946 5.41903 53.474C5.2992 53.593 5.18367 53.7163 5.07265 53.8436C4.00378 55.0538 3.3664 56.5116 3.15903 58.0182Z" fill="#FFCEBF"/>
<path d="M1.98861 50.7612C4.82624 50.889 7.62799 52.0386 9.79461 54.2052C11.9625 56.3731 13.1109 59.1736 13.2374 62.0125C10.1061 64.7736 5.32749 64.6579 2.33474 61.6651C-0.657887 58.6722 -0.773637 53.8912 1.98861 50.7612Z" fill="#7A6D79"/>
<path d="M4.09144 62.994C3.44707 62.6348 2.85589 62.1875 2.33494 61.6651C-0.657681 58.6711 -0.773556 53.8911 1.98857 50.7606C3.75532 50.8405 5.50919 51.3156 7.10344 52.1861C6.48683 52.538 5.9203 52.9711 5.41907 53.4739C5.29924 53.5929 5.18371 53.7162 5.07269 53.8435C2.80369 56.415 2.47532 60.1005 4.09144 62.994Z" fill="#685E68"/>
<path d="M28.0186 16.0272C29.5971 14.4487 29.5971 11.8893 28.0186 10.3107L21.1429 3.43508C18.7772 1.06933 14.9416 1.06933 12.5758 3.43508L11.1429 4.86795L22.3022 16.0272C23.8807 17.6057 26.4401 17.6057 28.0186 16.0272Z" fill="#BBEC6C"/>
<path d="M28.8941 14.7189C28.6909 15.2083 28.3934 15.6528 28.0184 16.0273C26.4397 17.606 23.8809 17.606 22.3022 16.0273L11.1427 4.86788L12.576 3.43463C12.8272 3.1825 13.1004 2.95326 13.3923 2.74963L24.4861 13.8434C25.6786 15.0358 27.4286 15.3268 28.8941 14.7189Z" fill="#A2E62E"/>
<path d="M13.6088 2.3349C16.7222 5.44827 16.7222 10.4955 13.6088 13.6088C10.4954 16.722 5.4483 16.7221 2.33492 13.6088C2.2148 13.4891 2.09894 13.3653 1.98755 13.2375C3.04717 11.5741 1.9868 6.32252 4.15467 4.15465C6.3213 1.98802 11.5077 3.3124 13.2387 1.98865C13.3661 2.09967 13.4895 2.21516 13.6088 2.3349Z" fill="#FFDFCF"/>
<path d="M14.8156 12.0625C14.4786 12.6257 14.0733 13.1452 13.6089 13.609C10.4952 16.7228 5.44868 16.7228 2.33493 13.609C2.21468 13.4895 2.09869 13.3658 1.98718 13.2381C2.72243 12.0843 2.43793 9.20751 2.91693 6.82788C3.19442 8.18507 3.82319 9.44567 4.74043 10.4838C4.85225 10.6115 4.96819 10.7356 5.08806 10.8559C7.72668 13.4945 11.7533 13.8975 14.8156 12.0625Z" fill="#FFCEBF"/>
<path d="M13.2388 1.98871C13.1111 4.82633 11.9614 7.62808 9.79481 9.79471C7.62694 11.9626 4.82643 13.111 1.98756 13.2375C-0.773691 10.1063 -0.657816 5.32771 2.33493 2.33483C5.32768 -0.657918 10.1087 -0.773669 13.2388 1.98871Z" fill="#B98080"/>
<path d="M6.62819 12.0587C5.16407 12.7747 3.58144 13.1674 1.98719 13.2382C-0.773683 10.1064 -0.657683 5.32767 2.33494 2.33492C2.79884 1.87062 3.31827 1.46535 3.88144 1.1283C2.13144 4.05017 2.41732 7.85017 4.74032 10.4835C4.85214 10.6113 4.96807 10.7354 5.08794 10.8557C5.54979 11.3186 6.06713 11.7227 6.62819 12.0587Z" fill="#AE6C6C"/>
</svg>
