<svg width="80" height="96" viewBox="0 0 80 96" fill="none" xmlns="http://www.w3.org/2000/svg">
<g style="mix-blend-mode:multiply">
<g style="mix-blend-mode:multiply">
<path d="M39.7838 96C61.7558 96 79.5676 91.2956 79.5676 85.4923C79.5676 79.6891 61.7558 74.9847 39.7838 74.9847C17.8118 74.9847 0 79.6891 0 85.4923C0 91.2956 17.8118 96 39.7838 96Z" fill="url(#paint0_radial_7716_9248)" fill-opacity="0.15"/>
</g>
</g>
<path fill-rule="evenodd" clip-rule="evenodd" d="M7.15793 79.0746C10.7089 78.1231 29.3369 78.6141 29.3369 78.6141V83.6496C29.3369 83.6496 11.4753 84.2561 7.6896 83.7218C5.56526 83.422 5.27118 79.5801 7.15793 79.0746Z" fill="#D68C04"/>
<mask id="mask0_7716_9248" style="mask-type:luminance" maskUnits="userSpaceOnUse" x="6" y="78" width="24" height="5">
<path d="M6.67014 78.4696H29.3405V82.8563H6.67014V78.4696Z" fill="white"/>
</mask>
<g mask="url(#mask0_7716_9248)">
<mask id="mask1_7716_9248" style="mask-type:luminance" maskUnits="userSpaceOnUse" x="5" y="78" width="25" height="6">
<path fill-rule="evenodd" clip-rule="evenodd" d="M7.15799 79.0747C10.7089 78.1232 29.337 78.6142 29.337 78.6142V83.6497C29.337 83.6497 11.4754 84.2562 7.68966 83.722C5.56532 83.4221 5.27124 79.5802 7.15799 79.0747Z" fill="white"/>
</mask>
<g mask="url(#mask1_7716_9248)">
<path fill-rule="evenodd" clip-rule="evenodd" d="M7.96411 77.9568C11.5149 77.0051 30.1427 77.4963 30.1427 77.4963V82.5318C30.1427 82.5318 12.2815 83.1383 8.49578 82.604C6.37127 82.3042 6.07736 78.4623 7.96411 77.9568Z" fill="#FBAB17"/>
</g>
</g>
<path fill-rule="evenodd" clip-rule="evenodd" d="M7.15793 74.9009C10.7089 73.9492 29.3369 74.4405 29.3369 74.4405V79.4759C29.3369 79.4759 11.4753 80.0824 7.6896 79.5482C5.56526 79.2483 5.27118 75.4064 7.15793 74.9009Z" fill="#D68C04"/>
<mask id="mask2_7716_9248" style="mask-type:luminance" maskUnits="userSpaceOnUse" x="6" y="74" width="24" height="5">
<path d="M6.67014 74.298H29.3405V78.6847H6.67014V74.298Z" fill="white"/>
</mask>
<g mask="url(#mask2_7716_9248)">
<mask id="mask3_7716_9248" style="mask-type:luminance" maskUnits="userSpaceOnUse" x="5" y="74" width="25" height="6">
<path fill-rule="evenodd" clip-rule="evenodd" d="M7.15799 74.9009C10.7089 73.9492 29.337 74.4404 29.337 74.4404V79.4759C29.337 79.4759 11.4754 80.0823 7.68966 79.5481C5.56532 79.2483 5.27124 75.4064 7.15799 74.9009Z" fill="white"/>
</mask>
<g mask="url(#mask3_7716_9248)">
<path fill-rule="evenodd" clip-rule="evenodd" d="M7.96411 73.783C11.5149 72.8313 30.1427 73.3225 30.1427 73.3225V78.358C30.1427 78.358 12.2815 78.9645 8.49578 78.4303C6.37127 78.1304 6.07736 74.2885 7.96411 73.783Z" fill="#FBAB17"/>
</g>
</g>
<path fill-rule="evenodd" clip-rule="evenodd" d="M7.15793 70.7271C10.7089 69.7754 29.3369 70.2666 29.3369 70.2666V75.3023C29.3369 75.3023 11.4753 75.9088 7.6896 75.3745C5.56526 75.0747 5.27118 71.2329 7.15793 70.7271Z" fill="#D68C04"/>
<mask id="mask4_7716_9248" style="mask-type:luminance" maskUnits="userSpaceOnUse" x="6" y="70" width="24" height="5">
<path d="M6.67014 70.1263H29.3405V74.513H6.67014V70.1263Z" fill="white"/>
</mask>
<g mask="url(#mask4_7716_9248)">
<mask id="mask5_7716_9248" style="mask-type:luminance" maskUnits="userSpaceOnUse" x="5" y="70" width="25" height="6">
<path fill-rule="evenodd" clip-rule="evenodd" d="M7.15799 70.7272C10.7089 69.7755 29.337 70.2668 29.337 70.2668V75.3024C29.337 75.3024 11.4754 75.9089 7.68966 75.3746C5.56532 75.0748 5.27124 71.2331 7.15799 70.7272Z" fill="white"/>
</mask>
<g mask="url(#mask5_7716_9248)">
<path fill-rule="evenodd" clip-rule="evenodd" d="M7.96411 69.6094C11.5149 68.6577 30.1427 69.1487 30.1427 69.1487V74.1844C30.1427 74.1844 12.2815 74.7909 8.49578 74.2565C6.37127 73.9568 6.07736 70.1147 7.96411 69.6094Z" fill="#FBAB17"/>
</g>
</g>
<path fill-rule="evenodd" clip-rule="evenodd" d="M7.15793 66.5534C10.7089 65.6021 29.3369 66.0931 29.3369 66.0931V71.1284C29.3369 71.1284 11.4753 71.7347 7.6896 71.2007C5.56526 70.901 5.27118 67.0591 7.15793 66.5534Z" fill="#D68C04"/>
<mask id="mask6_7716_9248" style="mask-type:luminance" maskUnits="userSpaceOnUse" x="6" y="65" width="24" height="6">
<path d="M6.67014 65.9547H29.3405V70.3413H6.67014V65.9547Z" fill="white"/>
</mask>
<g mask="url(#mask6_7716_9248)">
<mask id="mask7_7716_9248" style="mask-type:luminance" maskUnits="userSpaceOnUse" x="5" y="65" width="25" height="7">
<path fill-rule="evenodd" clip-rule="evenodd" d="M7.15799 66.5534C10.7089 65.6021 29.337 66.0931 29.337 66.0931V71.1284C29.337 71.1284 11.4754 71.7347 7.68966 71.2007C5.56532 70.901 5.27124 67.0591 7.15799 66.5534Z" fill="white"/>
</mask>
<g mask="url(#mask7_7716_9248)">
<path fill-rule="evenodd" clip-rule="evenodd" d="M7.96411 65.4356C11.5149 64.4839 30.1427 64.9749 30.1427 64.9749V70.0106C30.1427 70.0106 12.2815 70.617 8.49578 70.0828C6.37127 69.7831 6.07736 65.9414 7.96411 65.4356Z" fill="#FBAB17"/>
</g>
</g>
<path fill-rule="evenodd" clip-rule="evenodd" d="M18.4256 65.6326C12.1813 65.6326 7.11176 66.0183 7.11176 66.4936C7.11176 66.9687 12.1813 67.3546 18.4256 67.3546C24.6698 67.3546 29.7393 66.9687 29.7393 66.4936C29.7393 66.0183 24.6698 65.6326 18.4256 65.6326Z" fill="#D68C04"/>
<path fill-rule="evenodd" clip-rule="evenodd" d="M25.0368 69.2624C25.1322 69.3432 19.9055 71.4657 19.8589 71.3491C19.7583 71.0979 19.6278 70.8605 19.4912 70.6279C19.092 69.9488 18.6407 69.299 18.1515 68.6823C16.7284 66.8885 14.9887 65.4266 12.9163 64.4465C10.6359 63.3683 7.971 63.1675 5.44531 63.1072C2.86198 63.0462 2.48503 62.0132 3.51563 59.7515C4.61924 57.3294 9.40093 52.7715 11.3702 50.9487C13.3026 49.1601 14.8938 51.0388 18.17 51.4094C18.1708 51.4317 18.7369 51.9698 18.9551 52.2097C19.9916 53.3485 20.9022 54.6268 21.6777 55.9573C23.866 59.7135 25.3987 64.8194 25.0368 69.2624Z" fill="#20B7AF"/>
<path fill-rule="evenodd" clip-rule="evenodd" d="M25.2076 70.8205C25.2734 70.9267 19.6515 71.3344 19.6426 71.2093C19.6236 70.9396 19.5716 70.6734 19.5126 70.4098C19.3398 69.64 19.1086 68.8822 18.8312 68.1447C18.024 65.9982 16.8143 64.0702 15.1408 62.4982C13.2993 60.7685 10.8242 59.7554 8.43874 58.9193C5.9986 58.0643 5.95499 56.9646 7.62603 55.13C9.41537 53.1654 15.3572 50.3019 17.7876 49.1747C20.1724 48.0683 21.1138 50.3471 24.119 51.7104C24.113 51.7319 24.4876 52.4188 24.622 52.7142C25.2611 54.1176 25.7379 55.6155 26.0699 57.1212C27.0066 61.3706 26.9074 66.703 25.2076 70.8205Z" fill="#68E5DE"/>
<path fill-rule="evenodd" clip-rule="evenodd" d="M10.7422 57.5714C10.7345 57.5796 10.7179 57.5962 10.7068 57.605C10.6792 57.6265 10.6486 57.6458 10.6174 57.6643C10.5103 57.7271 10.397 57.78 10.3088 57.8341C10.2324 57.8815 10.0707 57.9846 9.98544 58.0935C9.88285 58.2237 9.84809 58.3695 9.87048 58.5076C9.89254 58.6435 9.97057 58.7687 10.1103 58.8555C10.2093 58.9175 10.3687 58.9553 10.4409 58.9743C10.7582 59.0581 11.0902 59.0907 11.4112 59.1579C12.5546 59.3966 13.6218 59.9583 14.5518 60.6601C17.4111 62.8182 19.1149 65.9017 20.5427 69.1143C20.6344 69.3208 20.8752 69.4134 21.08 69.3213C21.285 69.2292 21.3771 68.9871 21.2855 68.781C19.8015 65.4411 18.0123 62.2492 15.0402 60.006C14.0154 59.2327 12.8364 58.6198 11.5764 58.3571C11.4391 58.3284 11.2996 58.3069 11.1602 58.284C11.1833 58.2681 11.2055 58.2513 11.2269 58.2341C11.3997 58.0927 11.518 57.9141 11.5475 57.6922C11.5995 57.3017 11.4067 56.9878 11.1343 56.7099C11.0336 56.6067 10.9228 56.5091 10.8357 56.405C10.792 56.3521 10.7395 56.3035 10.7671 56.2308C10.8595 55.9884 11.056 55.7819 11.2707 55.5931C11.5293 55.3659 11.8197 55.1682 12.0562 54.9905C13.4157 53.9696 14.9209 53.146 16.4258 52.3645C16.7217 52.211 17.0788 51.9877 17.4494 51.8085C17.758 51.6593 18.0741 51.5333 18.3649 51.5491C18.5587 51.5598 18.697 51.6652 18.8255 51.7865C18.951 51.9052 19.066 52.0415 19.1863 52.1715C19.4534 52.4588 19.7485 52.7069 20.1447 52.7946C20.5632 52.887 21.0329 52.7133 21.3642 52.4638C21.3901 52.4445 21.4466 52.3943 21.4951 52.3504C21.6865 52.4798 21.8663 52.6703 22.0396 52.8677C22.2973 53.1618 22.5359 53.4772 22.7519 53.7068C24.3128 55.3668 25.3474 57.3889 26.7227 59.1828C26.8601 59.3614 27.1154 59.3948 27.2933 59.2569C27.4708 59.1191 27.5042 58.8619 27.3668 58.6832C25.975 56.8681 24.9227 54.825 23.343 53.1447C22.8877 52.6604 22.3231 51.8303 21.7048 51.5293C21.5562 51.457 21.3888 51.4575 21.2202 51.54C21.0921 51.6025 20.9524 51.7522 20.8763 51.8093C20.7225 51.9254 20.5139 52.0386 20.3196 51.9956C20.1595 51.9603 20.0372 51.8653 19.9234 51.7577C19.7599 51.6042 19.6148 51.4228 19.4573 51.2635C19.1721 50.9759 18.8496 50.7565 18.4093 50.7325C18.0708 50.7135 17.7037 50.8077 17.3413 50.9604C16.8778 51.1556 16.4193 51.4476 16.0527 51.6378C14.508 52.4398 12.9646 53.287 11.5693 54.3351C11.0271 54.7423 10.2621 55.2688 10.0073 55.9388C9.84592 56.3628 9.9963 56.6966 10.273 56.9999C10.3746 57.1112 10.4952 57.2182 10.6003 57.3313C10.6687 57.4054 10.7489 57.4721 10.7422 57.5714Z" fill="white"/>
<path d="M16.8163 60.7368L17.5042 60.2C17.2313 59.7565 17.0512 59.3634 16.9641 59.0207C16.8771 58.678 16.8851 58.3166 16.9882 57.9373C17.0913 57.5581 17.3093 57.2141 17.6427 56.9051L18.4084 57.6277C18.0883 57.9795 17.9037 58.3034 17.8545 58.5997C17.7879 59.0212 17.8647 59.4036 18.0849 59.7471L20.2746 58.0381C20.0681 57.6596 19.9119 57.2299 19.8058 56.7487C19.7266 56.3926 19.7409 56.0593 19.8486 55.7492C19.9562 55.439 20.1476 55.1768 20.4227 54.9618C20.9119 54.5802 21.4673 54.4774 22.0889 54.6533C22.5059 54.7704 22.9468 55.0825 23.4118 55.5901L23.7405 55.3337L24.1131 55.8158L23.7841 56.0725C24.1139 56.5787 24.2881 57.0476 24.3073 57.4798C24.3342 58.0329 24.1581 58.5159 23.7784 58.9283L23.018 58.1653C23.2506 57.906 23.3796 57.6436 23.4053 57.3782C23.4311 57.1124 23.3637 56.8287 23.2035 56.526L21.2202 58.0732C21.4521 58.5537 21.5953 58.8792 21.6501 59.0504C21.7525 59.379 21.7983 59.6762 21.7874 59.9423C21.7766 60.2086 21.7114 60.4576 21.5921 60.6889C21.473 60.9207 21.305 61.1211 21.0885 61.2898C20.6121 61.6617 20.0753 61.7913 19.4783 61.6785C18.8811 61.5663 18.3498 61.2322 17.8841 60.6765L17.1887 61.2192L16.8163 60.7368ZM22.8387 56.0373C22.552 55.7505 22.2513 55.5832 21.9363 55.5346C21.6213 55.4864 21.3455 55.5544 21.1086 55.7392C20.8741 55.922 20.7383 56.1535 20.701 56.4331C20.6636 56.7126 20.7418 57.0755 20.9356 57.5223L22.8387 56.0373ZM18.4574 60.2292C18.7364 60.5221 19.0554 60.6949 19.4146 60.7475C19.7737 60.8003 20.0998 60.7126 20.3928 60.4838C20.6424 60.2891 20.7862 60.0589 20.8242 59.7935C20.8623 59.5277 20.7714 59.1287 20.5515 58.5953L18.4574 60.2292Z" fill="white"/>
<path fill-rule="evenodd" clip-rule="evenodd" d="M17.3534 28.1788C17.276 28.2777 21.4253 31.1515 23.606 35.8006C25.9026 40.6976 24.6588 48.9201 24.6588 48.9201C24.6588 48.9201 26.4334 49.2187 27.5713 49.4728C28.4134 49.6612 29.2749 49.7742 30.1416 49.807C31.4218 49.8555 32.6656 49.7153 33.94 48.6458C39.3389 44.1141 39.5369 33.4352 36.1119 28.3853C32.4193 22.9405 19.8487 23.5173 17.3534 28.1788Z" fill="#6B59E2"/>
<path fill-rule="evenodd" clip-rule="evenodd" d="M17.1015 28.2301C19.2076 27.1056 21.5545 26.7257 23.6421 28.2508C28.8353 32.0448 27.0289 40.6707 25.6379 45.8775C22.6653 57.0063 13.6456 75.4105 24.8831 85.0352C30.0678 87.5841 43.9159 87.2179 53.875 85.7081C56.5604 85.3011 58.9635 84.8107 60.837 84.272C61.0547 84.2095 55.1569 73.3837 58.0968 56.399C59.629 47.547 61.8066 32.3704 60.44 29.5474C58.6537 25.857 53.6967 24.4116 50.163 23.074C39.7718 19.1411 22.2118 20.2424 17.1015 28.2301Z" fill="#988CEB"/>
<mask id="mask8_7716_9248" style="mask-type:luminance" maskUnits="userSpaceOnUse" x="17" y="20" width="44" height="59">
<path d="M17.0639 20.8406H60.9075V78.8138H17.0639V20.8406Z" fill="white"/>
</mask>
<g mask="url(#mask8_7716_9248)">
<mask id="mask9_7716_9248" style="mask-type:luminance" maskUnits="userSpaceOnUse" x="17" y="20" width="44" height="67">
<path fill-rule="evenodd" clip-rule="evenodd" d="M17.1013 28.23C19.2075 27.1054 21.5544 26.7256 23.642 28.2507C28.8352 32.0447 27.0288 40.6705 25.6378 45.8774C22.6652 57.0062 13.6455 75.4104 24.8829 85.035C30.0676 87.584 43.9158 87.2178 53.8749 85.708C56.5603 85.301 58.9633 84.8106 60.8369 84.2718C61.0546 84.2093 55.1568 73.3836 58.0967 56.3989C59.6288 47.5469 61.8065 32.3702 60.4399 29.5472C58.6536 25.8569 53.6966 24.4115 50.1629 23.0739C39.7717 19.1409 22.2117 20.2423 17.1013 28.23Z" fill="white"/>
</mask>
<g mask="url(#mask9_7716_9248)">
<path fill-rule="evenodd" clip-rule="evenodd" d="M13.519 32.5098C13.7111 32.5159 14.3456 31.7666 14.4714 31.6419C15.3705 30.7512 16.2794 29.8795 17.2654 29.0844C20.1542 26.7546 23.9963 23.9085 27.7339 23.2835C34.5402 22.146 39.1359 29.5647 37.631 35.6846C36.6803 39.5522 33.5457 42.7578 31.803 46.294C30.803 48.3234 29.971 50.4604 29.4232 52.6601C28.8674 54.891 27.9222 60.0603 30.2837 61.7213C31.5276 62.5961 32.813 60.8126 33.3982 59.9357C35.311 57.068 36.3721 53.6824 38.7483 51.1138C39.4729 50.3306 41.3764 48.4576 42.5686 49.4459C43.6632 50.3532 42.48 52.9325 42.074 53.8897C40.2989 58.0768 38.1648 61.9363 37.5747 66.5355C37.1362 69.9497 37.5553 73.6152 39.4071 76.5832C40.0923 77.6812 41.6112 79.465 43.0702 78.5074C44.8907 77.3129 44.4993 73.6913 44.4425 71.8847C44.2996 67.3213 44.2495 62.4249 47.032 58.522C47.31 58.1319 47.6497 57.7738 48.0116 57.4611C51.211 54.6949 50.2658 61.5496 51.5861 61.6339C52.2312 61.6753 52.5846 60.6749 52.7659 60.2015C53.2369 58.968 52.872 56.0138 54.2002 55.2978C55.6351 54.5241 55.5651 59.0122 57.0691 57.5922C58.419 56.3171 57.3334 53.5181 57.0442 52.0263C56.1574 47.4469 55.4667 42.5747 55.7267 37.9085C55.858 35.5581 56.1349 32.976 57.3483 30.9083C58.954 28.1717 62.7888 26.8028 61.2245 23.0255C60.9832 22.4432 60.6616 21.8902 60.3035 21.3727C57.4634 17.2708 52.1841 15.3493 47.4624 14.7045C36.6913 13.2345 16.0627 21.7741 13.519 32.5098Z" fill="#C1BAF3"/>
</g>
</g>
<path fill-rule="evenodd" clip-rule="evenodd" d="M34.8734 44.9356C37.5737 45.0904 41.1826 45.0964 43.8842 45.2031C44.3803 45.2229 44.7858 44.9365 44.7894 44.5635C44.7932 44.1911 44.3932 43.8729 43.8974 43.8531C41.2082 43.7469 37.6165 43.7417 34.9285 43.5878C34.4328 43.5594 34.0183 43.8385 34.0029 44.2104C33.9875 44.5825 34.3777 44.9076 34.8734 44.9356Z" fill="white"/>
<path fill-rule="evenodd" clip-rule="evenodd" d="M34.5181 50.0232C35.0972 50.1152 35.8715 49.9906 36.4579 49.9871C37.8523 49.9793 39.2455 49.9918 40.6416 50.0202C45.1211 50.1114 49.6089 50.2774 54.0886 50.4339C54.5844 50.4516 54.9877 50.163 54.9882 49.7905C54.9891 49.4177 54.5869 49.1012 54.0911 49.0836C49.5995 48.9265 45.0997 48.7602 40.6087 48.669C39.192 48.6401 37.7784 48.6273 36.3634 48.6354C35.8934 48.6381 35.2773 48.7748 34.8136 48.7007C34.3244 48.6234 33.8611 48.8561 33.7799 49.2212C33.6982 49.5859 34.0292 49.9449 34.5181 50.0232Z" fill="white"/>
<path fill-rule="evenodd" clip-rule="evenodd" d="M30.5361 43.4862C31.2594 43.4862 31.8472 44.0767 31.8472 44.8045C31.8472 45.5321 31.2594 46.1226 30.5361 46.1226C29.8124 46.1226 29.2246 45.5321 29.2246 44.8045C29.2246 44.0767 29.8124 43.4862 30.5361 43.4862Z" fill="white"/>
<path fill-rule="evenodd" clip-rule="evenodd" d="M34.0676 55.8271C36.7679 55.9815 40.3768 55.9874 43.0787 56.0946C43.5745 56.1139 43.98 55.8274 43.9839 55.455C43.9874 55.0822 43.5877 54.7639 43.0919 54.7446C40.4023 54.6379 36.8106 54.6327 34.1227 54.4793C33.6273 54.4509 33.2124 54.7294 33.197 55.1015C33.182 55.4735 33.5718 55.7987 34.0676 55.8271Z" fill="white"/>
<path fill-rule="evenodd" clip-rule="evenodd" d="M33.7126 60.9143C34.2913 61.0064 35.0655 60.8816 35.652 60.8782C37.0464 60.8705 38.4395 60.8832 39.8362 60.9116C44.315 61.0025 48.8029 61.1685 53.283 61.3254C53.7788 61.3427 54.1818 61.0544 54.1826 60.6816C54.1831 60.3087 53.781 59.9922 53.2852 59.9751C48.7939 59.8176 44.2941 59.6512 39.8033 59.5599C38.3861 59.5316 36.9725 59.5188 35.5574 59.5265C35.0874 59.529 34.4714 59.6663 34.0077 59.5922C33.5188 59.5144 33.0552 59.7471 32.9739 60.1121C32.8926 60.4769 33.2232 60.8364 33.7126 60.9143Z" fill="white"/>
<path fill-rule="evenodd" clip-rule="evenodd" d="M29.73 54.3773C30.4538 54.3773 31.0411 54.9681 31.0411 55.6953C31.0411 56.4231 30.4538 57.0139 29.73 57.0139C29.0063 57.0139 28.419 56.4231 28.419 55.6953C28.419 54.9681 29.0063 54.3773 29.73 54.3773Z" fill="white"/>
<path fill-rule="evenodd" clip-rule="evenodd" d="M33.2614 66.7181C35.9621 66.8725 39.5706 66.8789 42.2726 66.9855C42.7684 67.0054 43.1739 66.7186 43.1777 66.3462C43.1811 65.9737 42.7816 65.6554 42.2858 65.6355C39.5967 65.5294 36.0048 65.5238 33.3169 65.3703C32.8212 65.3419 32.4063 65.6209 32.3912 65.993C32.3759 66.365 32.766 66.6897 33.2614 66.7181Z" fill="white"/>
<path fill-rule="evenodd" clip-rule="evenodd" d="M32.907 71.8054C33.4856 71.8979 34.2599 71.7728 34.8464 71.7697C36.2412 71.762 37.6344 71.7744 39.0306 71.8028C43.5094 71.8936 47.9978 72.06 52.4774 72.2166C52.9732 72.2341 53.3767 71.9456 53.377 71.5727C53.3779 71.2002 52.9759 70.8837 52.4796 70.8661C47.9883 70.7092 43.4885 70.5427 38.9977 70.4515C37.5809 70.4228 36.1667 70.4098 34.7518 70.4175C34.2821 70.4206 33.6663 70.5573 33.2026 70.4834C32.7132 70.4054 32.25 70.6386 32.1683 71.0033C32.087 71.3681 32.4181 71.7276 32.907 71.8054Z" fill="white"/>
<path fill-rule="evenodd" clip-rule="evenodd" d="M28.9239 65.2682C29.6477 65.2682 30.2354 65.8593 30.2354 66.5868C30.2354 67.3146 29.6477 67.9051 28.9239 67.9051C28.2006 67.9051 27.6129 67.3146 27.6129 66.5868C27.6129 65.8593 28.2006 65.2682 28.9239 65.2682Z" fill="white"/>
<path d="M44.9936 38.8651L43.0915 38.8356C43.0345 38.8346 43.0063 38.8144 43.0068 38.7753L43.0205 37.8992C42.289 37.7354 41.6898 37.4313 41.2226 36.9871C40.756 36.5428 40.5267 36.0435 40.5352 35.4888L40.5439 34.922C40.5448 34.8776 40.5733 34.8561 40.6303 34.8569L42.6287 34.8878C42.6714 34.8887 42.6923 34.9112 42.6915 34.9554L42.683 35.5222C42.6786 35.7871 42.811 36.0203 43.0783 36.2207C43.346 36.4215 43.6616 36.5243 44.0248 36.5298C44.4025 36.5359 44.7208 36.4426 44.9804 36.2503C45.2401 36.0581 45.3714 35.8417 45.3752 35.601C45.3799 35.287 45.0994 35.0147 44.5326 34.785C44.3418 34.7034 44.0424 34.5834 43.6352 34.4252C43.228 34.2664 42.8507 34.1206 42.5037 33.9874C41.8236 33.7117 41.3304 33.3655 41.0233 32.9478C40.7162 32.5307 40.5665 32.067 40.5747 31.5567C40.5832 30.9919 40.8275 30.5047 41.3078 30.0948C41.7877 29.6849 42.3852 29.4119 43.1 29.276L43.1132 28.3995C43.1142 28.3604 43.1466 28.3414 43.2105 28.3423L45.1126 28.372C45.1839 28.3728 45.219 28.393 45.2187 28.4326L45.205 29.3232C45.9009 29.4816 46.4748 29.7752 46.928 30.2045C47.381 30.634 47.6033 31.1209 47.5948 31.6659L47.5793 32.6748C47.579 32.7041 47.5576 32.7187 47.5148 32.7179L45.5057 32.6864C45.463 32.6859 45.4419 32.6708 45.4424 32.6412L45.4364 31.6323C45.4411 31.3428 45.3092 31.1071 45.0411 30.9265C44.7729 30.7454 44.4645 30.6522 44.1156 30.647C43.7523 30.6409 43.4409 30.7322 43.1812 30.9196C42.9221 31.1071 42.7904 31.3309 42.7866 31.5909C42.7827 31.8413 42.8592 32.056 43.017 32.2352C43.1745 32.4146 43.4619 32.5935 43.8798 32.7716L45.6857 33.4923C46.2807 33.7225 46.7482 34.0059 47.0887 34.3425C47.4292 34.6794 47.5957 35.0982 47.5875 35.5988C47.579 36.173 47.345 36.6654 46.886 37.0756C46.4274 37.4859 45.8372 37.7663 45.1151 37.9168L45.1014 38.808C45.1006 38.8472 45.0646 38.8665 44.9936 38.8651Z" fill="white"/>
<path fill-rule="evenodd" clip-rule="evenodd" d="M37.8355 24.2097C42.3586 19.0572 50.1918 18.5664 55.3165 23.1139C60.4414 27.6619 60.9298 35.5376 56.4064 40.6904C51.883 45.843 44.0498 46.3337 38.9254 41.7862C33.8007 37.2383 33.3121 29.3628 37.8355 24.2097ZM40.1569 26.2697C43.5494 22.4056 49.424 22.0371 53.2677 25.4484C57.1114 28.8592 57.4774 34.7657 54.0851 38.6303C50.6927 42.495 44.8176 42.8631 40.9743 39.4523C37.1306 36.0413 36.764 30.1344 40.1569 26.2697Z" fill="#201471"/>
<path fill-rule="evenodd" clip-rule="evenodd" d="M57.233 38.4403C55.499 37.8958 53.536 40.1322 54.2884 41.7943C55.0413 43.4566 60.0142 47.8699 61.7482 48.414C63.4819 48.9585 65.4452 46.7225 64.6924 45.0598C63.9401 43.3977 58.967 38.9843 57.233 38.4403Z" fill="#201471"/>
<path fill-rule="evenodd" clip-rule="evenodd" d="M62.8005 41.5054C59.9735 40.6163 56.7767 44.2578 58.0051 46.9681C59.2335 49.678 67.3447 56.8759 70.1717 57.7649C72.9988 58.6543 76.1957 55.0125 74.9673 52.3026C73.7387 49.5923 65.6274 42.3944 62.8005 41.5054Z" fill="#FBAB17"/>
<mask id="mask10_7716_9248" style="mask-type:luminance" maskUnits="userSpaceOnUse" x="57" y="41" width="19" height="17">
<path d="M57.6996 41.3548H75.2799V57.9124H57.6996V41.3548Z" fill="white"/>
</mask>
<g mask="url(#mask10_7716_9248)">
<mask id="mask11_7716_9248" style="mask-type:luminance" maskUnits="userSpaceOnUse" x="57" y="41" width="19" height="17">
<path fill-rule="evenodd" clip-rule="evenodd" d="M62.8006 41.5055C59.9737 40.6164 56.7768 44.2579 58.0052 46.9682C59.2336 49.6781 67.3449 56.876 70.1718 57.7651C72.9989 58.6544 76.1958 55.0126 74.9674 52.3027C73.7388 49.5924 65.6276 42.3945 62.8006 41.5055Z" fill="white"/>
</mask>
<g mask="url(#mask11_7716_9248)">
<path fill-rule="evenodd" clip-rule="evenodd" d="M58.7444 41.0801C58.6391 41.0001 58.7148 41.3437 58.7157 41.4762C58.7173 41.7287 58.7302 41.9777 58.7541 42.2289C58.8289 43.0141 58.9701 43.8146 59.1776 44.5752C59.8445 47.0189 61.4271 49.3878 64.0778 49.8736C64.6604 49.9808 65.4825 49.9902 65.9245 49.5163C66.2376 49.1805 65.554 48.381 66.4471 48.3956C66.5515 48.3973 66.6571 48.4279 66.7504 48.4739C67.1995 48.6958 67.4112 49.3078 67.5661 49.7465C67.9631 50.8727 68.54 52.8214 70.1026 52.6872C71.3423 52.5805 70.0388 50.8109 70.7015 50.3029C70.911 50.1424 71.1788 50.3502 71.3346 50.4878C71.5962 50.7188 72.1558 51.7819 72.5989 51.6327C72.8166 51.5591 72.7374 51.102 72.7247 50.9364C72.6771 50.3218 72.5993 49.3912 73.5062 49.4669C74.3886 49.5408 75.0426 50.3257 75.5062 51.0116C76.6685 52.7302 77.1908 55.2784 76.0157 57.1341C74.3502 59.7649 70.523 59.324 68.0029 58.5766C66.9412 58.2618 65.9047 57.8855 64.8919 57.4361C64.0619 57.0679 63.2531 56.6386 62.4721 56.1751C58.9761 54.1012 53.2589 49.0686 58.7444 41.0801Z" fill="#D68C04"/>
</g>
</g>
<path fill-rule="evenodd" clip-rule="evenodd" d="M68.4048 26.3816C71.7398 26.2148 74.5822 28.8021 74.7477 32.1553C74.9137 35.5084 72.3404 38.3664 69.0053 38.5327C65.6702 38.6997 62.8277 36.1124 62.6623 32.759C62.4962 29.4058 65.0696 26.5481 68.4048 26.3816Z" fill="#20B7AF"/>
<path fill-rule="evenodd" clip-rule="evenodd" d="M70.2333 26.2032C73.5684 26.0367 76.4107 28.6235 76.5763 31.9769C76.7422 35.3301 74.1689 38.1878 70.8338 38.3546C67.4988 38.5211 64.6563 35.9343 64.4909 32.581C64.3248 29.2278 66.8981 26.37 70.2333 26.2032Z" fill="#68E5DE"/>
<path fill-rule="evenodd" clip-rule="evenodd" d="M66.8232 33.325C67.1608 34.009 68.7366 36.9334 69.8495 36.2922C70.9698 35.6471 73.0624 30.7005 73.5445 29.4536C73.686 29.0877 72.9943 28.5841 72.742 28.8098C72.097 29.3866 70.4946 32.3502 69.6751 32.9131C69.1135 33.2988 68.3008 32.1197 67.8254 32.1884C67.3897 32.2516 66.5731 32.8172 66.8232 33.325Z" fill="white"/>
<defs>
<radialGradient id="paint0_radial_7716_9248" cx="0" cy="0" r="1" gradientUnits="userSpaceOnUse" gradientTransform="translate(39.7838 85.4937) rotate(-90) scale(10.5082 39.784)">
<stop stop-color="#729EB1"/>
<stop offset="0.1529" stop-color="#7DA4B4"/>
<stop offset="0.7013" stop-color="#9EB8BF"/>
<stop offset="1" stop-color="#ABC0C3"/>
</radialGradient>
</defs>
</svg>
