<svg width="80" height="96" viewBox="0 0 80 96" fill="none" xmlns="http://www.w3.org/2000/svg">
<g style="mix-blend-mode:multiply">
<g style="mix-blend-mode:multiply">
<path d="M39.7838 96C61.7558 96 79.5676 91.2956 79.5676 85.4923C79.5676 79.6891 61.7558 74.9847 39.7838 74.9847C17.8118 74.9847 0 79.6891 0 85.4923C0 91.2956 17.8118 96 39.7838 96Z" fill="url(#paint0_radial_7716_9208)" fill-opacity="0.15"/>
</g>
</g>
<path d="M61.2134 52.3248C60.5655 49.5263 60.3589 45.4857 60.3033 42.4665C59.8613 42.6324 59.3773 42.889 58.8381 43.2864C58.5497 43.4978 58.1449 43.4353 57.9346 43.146C57.7236 42.8568 57.7858 42.4495 58.0742 42.238C58.644 41.8188 59.4237 41.5648 60.2893 41.4566C60.2778 40.212 60.29 39.2299 60.3007 38.7196C60.3069 38.3615 60.6023 38.076 60.9585 38.0827C61.315 38.0893 61.599 38.386 61.5924 38.7444C61.5821 39.2688 61.5253 40.2053 61.4583 41.3978C62.4889 41.4141 63.5581 41.6048 64.4877 41.9403C63.4082 42.3847 62.5165 42.0929 61.413 42.2058C61.2557 45.0602 61.0708 48.9897 61.2134 52.3248ZM9.6494 55.9691C8.54997 50.5424 8.98753 46.1201 10.9617 42.7035C15.1624 33.2574 20.4182 27.3738 26.7496 25.1197C31.1897 23.5384 34.1023 26.1036 31.73 29.0273C29.8733 31.2655 28.9455 32.3842 28.9455 32.3842C26.7382 34.7531 29.5923 35.6901 30.4022 34.8265C37.2507 25.7596 42.5298 21.4754 46.1297 22.433C50.0456 23.474 50.9149 25.0086 48.8622 26.5832C46.5013 28.4359 44.0347 30.6274 41.6963 33.3607C40.6263 34.6121 41.7983 36.6514 43.3371 34.9487C48.0088 29.2624 54.25 24.9441 62.3426 23.1637C65.937 22.3741 68.2283 27.4508 63.5573 29.1476C54.264 32.8923 48.2125 37.4305 45.4008 42.762C43.6623 46.3541 45.0822 55.842 47.1772 62.6222C34.2533 48.0428 29.5772 63.6787 27.3378 57.8347C32.1477 42.4106 31.1182 38.1727 24.2498 45.1235C21.6956 48.4342 19.1199 52.064 16.5222 56.0135C22.3803 41.3763 10.9617 42.7035 9.6494 55.9691ZM10.3621 26.7661C10.3621 27.7104 9.60115 28.4755 8.66231 28.4755C7.7231 28.4755 6.96216 27.7104 6.96216 26.7661C6.96216 25.8222 7.7231 25.0571 8.66231 25.0571C9.60115 25.0571 10.3621 25.8222 10.3621 26.7661ZM38.4462 8.23723C38.4462 8.92195 37.8956 9.47558 37.2146 9.47558C36.535 9.47558 35.9844 8.92195 35.9844 8.23723C35.9844 7.55363 36.535 7 37.2146 7C37.8956 7 38.4462 7.55363 38.4462 8.23723ZM65.6807 17.5156C65.6807 17.9707 65.3138 18.3395 64.8612 18.3395C64.4085 18.3395 64.042 17.9707 64.042 17.5156C64.042 17.0604 64.4085 16.6916 64.8612 16.6916C65.3138 16.6916 65.6807 17.0604 65.6807 17.5156ZM72.6054 26.5206C72.6054 27.4649 71.8445 28.23 70.9053 28.23C69.9653 28.23 69.2051 27.4649 69.2051 26.5206C69.2051 25.5767 69.9653 24.8116 70.9053 24.8116C71.8445 24.8116 72.6054 25.5767 72.6054 26.5206Z" fill="#FDD407"/>
<path d="M9.29593 53.8793C9.58543 50.5765 11.2403 48.1735 11.2749 48.1376C13.754 45.5587 15.3209 43.022 18.87 42.5328C21.4725 42.7935 23.2864 42.5328 24.3133 41.7514C26.433 40.189 28.5062 40.1313 30.5345 41.577C31.9478 43.9233 34.2807 44.3281 37.5337 42.7935C39.8143 41.5514 41.5608 41.577 42.7715 42.8713V42.8702C43.4352 43.3356 43.935 43.2379 44.2724 42.5765C47.6771 37.2702 52.7216 33.4033 59.4069 30.9755V30.9763C52.438 34.3417 47.7696 38.2704 45.4009 42.762C44.7994 44.0059 44.5759 45.9579 44.6289 48.2587L44.6297 48.3249C44.6308 48.3612 44.6315 48.3972 44.6326 48.4342L44.6344 48.4883C44.6363 48.5575 44.6392 48.6264 44.6422 48.6956L44.644 48.7515C44.6448 48.7904 44.6466 48.8304 44.6488 48.8701L44.6506 48.9137C44.6562 49.0456 44.6628 49.1782 44.6702 49.3118L44.6724 49.3574C44.675 49.4 44.6779 49.4437 44.6797 49.4863L44.6808 49.494C44.6864 49.5896 44.693 49.6855 44.6996 49.7821L44.7004 49.7966C44.7033 49.844 44.707 49.8914 44.7099 49.9395L44.7118 49.9614C44.7221 50.1073 44.7335 50.2543 44.7468 50.4021L44.7475 50.4213C44.756 50.5217 44.7656 50.622 44.774 50.7235C45.1276 54.5859 46.0554 58.9923 47.1773 62.6222C34.2534 48.0428 29.5773 63.6787 27.3379 57.8347C32.1478 42.4106 31.1183 38.1727 24.25 45.1235C21.6957 48.4342 19.12 52.064 16.5223 56.0135C22.3804 41.3763 10.9618 42.7035 9.64951 55.9691C9.5044 55.2551 9.38653 54.5581 9.29593 53.8793Z" fill="#D4B208"/>
<path fill-rule="evenodd" clip-rule="evenodd" d="M17.6658 48.072C16.032 48.3157 14.7779 48.6008 13.9016 48.9259C13.5613 49.0333 13.2457 49.1544 12.9495 49.2881L13.158 50.6109L12.379 49.5744C6.0797 53.1117 11.4825 63.4609 17.4894 70.9517L17.4566 70.9106C22.4425 64.8033 32.6324 62.1556 48.028 62.9688C44.6163 60.1725 42.6326 55.2065 42.0771 48.072C42.1291 44.7832 40.6308 43.6856 37.5833 44.7747C34.2637 45.4261 32.604 45.7512 32.604 45.7512C22.6451 47.2984 17.6658 48.072 17.6658 48.072ZM12.9013 49.31C12.7289 49.3888 12.5628 49.4722 12.4055 49.5596L12.9013 49.31Z" fill="#8D5728"/>
<path fill-rule="evenodd" clip-rule="evenodd" d="M17.6659 48.072C16.032 48.3157 14.7779 48.6008 13.9017 48.926C13.5614 49.0334 13.2457 49.1545 12.9496 49.2882L13.1581 50.6109L12.3791 49.5744C5.42637 53.4776 12.7279 65.6784 19.3642 73.177L21.5469 67.3549C16.2516 62.1489 13.6896 57.2319 13.8623 52.6018C13.8623 52.6018 14.4969 53.0158 15.765 53.8453C15.0759 52.0148 15.8368 50.9301 18.0478 50.5935C18.0478 50.5935 19.9815 52.7295 23.8503 57.0015C23.8503 57.0015 22.4227 54.7063 19.5697 50.1151C19.5697 50.1151 20.2032 50.1473 21.4713 50.2106C21.4713 50.2106 22.2643 50.8487 23.8503 52.1237C23.8503 52.1237 23.6599 51.3264 23.279 49.7329C26.3961 49.1404 30.4542 48.2483 35.4534 47.0559C36.2372 51.3086 38.0125 55.5802 40.78 59.87C38.1115 54.1941 36.9377 49.6996 37.2611 46.3856C37.2611 46.3856 37.7362 47.1192 38.6876 48.5857C38.6876 48.5857 38.6876 47.8843 38.6876 46.4811L41.0061 44.7917C40.2577 44.2326 39.1167 44.227 37.5834 44.7747C34.2637 45.4261 32.6041 45.7512 32.6041 45.7512C22.6452 47.2984 17.6659 48.072 17.6659 48.072ZM12.8818 49.3196C12.7242 49.3926 12.5732 49.4685 12.4281 49.5481L12.8818 49.3196Z" fill="#5B2E18"/>
<path fill-rule="evenodd" clip-rule="evenodd" d="M22.1192 76.0588C23.5675 77.4486 24.8584 78.4748 25.8031 78.9651C28.1029 80.1045 30.9769 80.3082 34.4258 79.5757C36.3635 78.4777 37.5108 79.3535 38.9196 81.6513C45.0514 91.6518 58.0706 92.1654 61.6293 85.0701C63.879 80.5852 57.1163 76.2758 52.1569 77.6219C48.1994 78.1463 45.0816 77.0476 42.8054 74.325C42.8864 73.4184 44.6072 72.2582 47.9677 70.8455C49.2347 70.3996 49.4981 69.6464 48.7566 68.5861C40.534 67.9277 31.6557 70.4189 22.1192 76.0588Z" fill="#FDD407"/>
<path fill-rule="evenodd" clip-rule="evenodd" d="M52.4423 77.5516C52.3473 77.5734 52.2511 77.596 52.1568 77.622C48.1993 78.1463 44.7673 77.0202 42.4911 74.2976C43.6745 77.0539 47.3017 79.7309 50.699 78.887C51.4419 78.7022 51.808 78.173 52.8666 77.7919L52.4423 77.5516Z" fill="#C58428"/>
<path fill-rule="evenodd" clip-rule="evenodd" d="M42.5213 74.4787C42.6024 73.5718 44.6071 72.2582 47.9676 70.8455C48.5879 70.6274 48.968 70.3352 49.1065 69.9697C43.897 70.4981 40.3424 71.839 42.5213 74.4787Z" fill="#C58428"/>
<path fill-rule="evenodd" clip-rule="evenodd" d="M22.1192 76.0589C23.5663 77.4483 24.8584 78.4748 25.8031 78.9655C28.1029 80.1046 30.9769 80.3086 34.4247 79.5758C36.3635 78.4778 37.5101 79.3536 38.9196 81.6514C45.0514 91.6515 58.0706 92.1655 61.6293 85.0706C62.0252 84.2811 62.1413 83.4975 62.0374 82.7487C61.3925 86.83 56.6574 87.6832 53.1742 87.3425C47.7515 86.8114 41.8378 82.5228 39.1414 78.1241C37.7023 75.7763 36.19 75.1968 34.7661 75.7334C31.2896 77.0443 22.7395 74.9816 33.7223 70.6411C29.683 71.9939 25.7844 73.8895 22.1192 76.0589Z" fill="#C58428"/>
<path fill-rule="evenodd" clip-rule="evenodd" d="M17.4567 70.9107C19.0349 72.8822 20.6559 74.6553 22.1192 76.0588C31.6557 70.4189 40.534 67.9277 48.7566 68.5862C50.4907 66.111 50.2476 64.2386 48.0281 62.9692C32.6325 62.1567 22.4415 64.8034 17.4567 70.9107Z" fill="#B3B3B3"/>
<path fill-rule="evenodd" clip-rule="evenodd" d="M49.4074 67.5056C50.371 65.5588 49.9117 64.0464 48.0281 62.9688C46.6392 62.8955 45.2926 62.8507 43.9877 62.8336C38.355 63.5028 31.4321 63.9886 28.0944 65.331C24.5508 66.7553 21.8588 69.8641 23.8256 71.238C25.5258 72.4245 26.6694 70.0571 28.1754 69.5586C37.7071 66.4046 48.866 65.6984 49.4074 67.5056Z" fill="#FDFDFD"/>
<path fill-rule="evenodd" clip-rule="evenodd" d="M33.0748 73.1626C31.4358 75.6971 38.997 73.697 45.4396 69.696C39.1476 70.266 34.867 71.0229 33.0748 73.1626Z" fill="#FAEAB9"/>
<path fill-rule="evenodd" clip-rule="evenodd" d="M56.1877 79.0921C52.239 77.9293 49.642 82.0869 44.7739 79.0921C46.8899 84.0177 50.7576 86.0574 56.3781 85.2123C57.8801 84.9405 58.9578 83.6037 58.9099 82.0698C58.8628 80.536 57.7037 79.2691 56.1877 79.0921Z" fill="#FAEAB9"/>
<path fill-rule="evenodd" clip-rule="evenodd" d="M20.5624 68.0148C19.8478 68.7362 19.2199 69.1135 18.6784 69.1461C15.7282 65.9714 13.8586 62.6977 11.7463 57.2119C13.8236 61.3624 15.5669 64.0079 16.9775 65.1493C14.1415 61.2154 12.3338 56.9748 11.5559 52.4299C13.8708 58.939 16.8729 64.1338 20.5624 68.0148Z" fill="#8D5728"/>
<path fill-rule="evenodd" clip-rule="evenodd" d="M45.5265 62.8662C46.5353 62.9029 47.0399 62.9214 47.0399 62.9214C43.8518 60.4788 41.7767 55.3906 40.8139 47.6558C40.7999 53.3298 42.3697 58.4006 45.5265 62.8662ZM34.5116 63.2917L34.2343 63.0073C30.7909 59.3675 28.5431 55.094 27.4919 50.1861C29.272 54.3648 30.9832 57.4088 32.6288 59.3193C31.2878 56.9311 30.2093 54.7155 29.3946 52.6728C31.9817 57.0726 34.0741 60.0529 35.6722 61.6142C33.4067 56.5027 31.8214 52.3429 30.9165 49.1337C35.1113 57.0411 38.0438 61.5186 39.7145 62.567L39.0044 62.9158C37.4335 62.9921 35.9355 63.1173 34.5116 63.2917ZM24.1708 65.9606C26.8705 64.7467 28.7033 64.0935 32.4645 63.585L32.8089 63.4639C29.6491 62.5244 27.4853 60.0674 24.0257 52.9835C25.0967 56.7708 26.6348 59.4708 28.6119 62.4352C28.6119 62.4352 26.0926 61.0476 24.0654 57.7132C24.0654 57.7132 24.9243 59.4793 26.002 61.5842C23.5752 59.8785 20.8511 58.0547 17.7112 52.0925C19.4556 56.9974 23.0507 61.4701 25.4315 64.5156C25.4315 64.5156 19.9259 61.1109 16.5223 56.0135C18.5145 59.9252 20.783 62.0874 24.0286 65.6773L24.1708 65.9606Z" fill="#C58428"/>
<path fill-rule="evenodd" clip-rule="evenodd" d="M39.9313 62.9518C40.939 62.9881 41.4436 63.0066 41.4436 63.0066C38.2566 60.564 36.7048 55.858 34.0769 48.506C35.773 55.0059 36.7745 58.4858 39.9313 62.9518Z" fill="#C58428"/>
<defs>
<radialGradient id="paint0_radial_7716_9208" cx="0" cy="0" r="1" gradientUnits="userSpaceOnUse" gradientTransform="translate(39.7838 85.4937) rotate(-90) scale(10.5082 39.784)">
<stop stop-color="#729EB1"/>
<stop offset="0.1529" stop-color="#7DA4B4"/>
<stop offset="0.7013" stop-color="#9EB8BF"/>
<stop offset="1" stop-color="#ABC0C3"/>
</radialGradient>
</defs>
</svg>
