<svg width="64" height="64" viewBox="0 0 64 64" fill="none" xmlns="http://www.w3.org/2000/svg">
<path d="M46.4517 28.387V29.1114C46.4517 29.999 46.5948 30.8808 46.8754 31.7228L48.5162 36.645H51.6129V25.2902H49.5484C47.8382 25.2903 46.4517 26.6767 46.4517 28.387Z" fill="#5A4146"/>
<path d="M60.5855 30.5314L58.8387 36.6452L50.5806 29.4194C49.4404 29.4194 48.5161 28.4951 48.5161 27.3549C48.5161 25.6447 49.9026 24.2582 51.6129 24.2582H58.8386C59.9789 24.2582 60.9031 25.1826 60.9031 26.3227V28.2629C60.9032 29.0302 60.7963 29.7937 60.5855 30.5314Z" fill="#694B4B"/>
<path d="M50.58 39.7426H56.7735V44.3112H50.58V39.7426Z" fill="#E6AF78"/>
<path d="M50.5806 41.6381C51.5379 42.0271 52.5819 42.2461 53.6773 42.2461C54.7727 42.2461 55.8167 42.0271 56.7741 41.6381V39.7419H50.5806V41.6381Z" fill="#D29B6E"/>
<path d="M61.7539 43.669L56.7739 42.2462L53.6774 44.3011L50.5806 42.2461L45.6009 43.669C44.9538 43.8538 44.3846 44.2445 43.9793 44.7817C43.5741 45.319 43.3549 45.9736 43.3549 46.6466V54.1936C43.3549 54.4674 43.4636 54.7299 43.6572 54.9235C43.8508 55.1171 44.1133 55.2258 44.3871 55.2258H62.9677C63.2415 55.2258 63.5041 55.1171 63.6976 54.9235C63.8912 54.7299 64 54.4674 64 54.1936V46.6466C64 45.9736 63.7808 45.319 63.3755 44.7817C62.9702 44.2444 62.4009 43.8538 61.7539 43.669Z" fill="#D5DCED"/>
<path d="M54.7096 55.2257H52.6451L53.1613 44.3105H54.1935L54.7096 55.2257Z" fill="#AFB9D2"/>
<path d="M53.6774 40.7742C50.2568 40.7742 47.4839 38.0012 47.4839 34.5807V33.3713C47.4839 32.8238 47.7014 32.2987 48.0885 31.9115L49.9604 30.0396C50.3568 29.6432 50.8988 29.4153 51.459 29.433C54.7588 29.5371 57.6795 30.244 59.2761 31.8033C59.667 32.1851 59.871 32.7191 59.871 33.2653V34.5807C59.871 38.0013 57.098 40.7742 53.6774 40.7742Z" fill="#F0C087"/>
<path d="M50.5806 33.6273C50.5806 32.4366 51.5806 31.4901 52.769 31.5658C54.8529 31.6988 57.9451 32.0471 59.8423 32.9596C59.7804 32.5241 59.5933 32.113 59.2761 31.8032C57.6795 30.2438 54.7588 29.537 51.459 29.4328L51.4589 29.433C50.8988 29.4153 50.3566 29.6432 49.9604 30.0395L48.0886 31.9112C47.8969 32.1029 47.7448 32.3305 47.641 32.581C47.5373 32.8315 47.4839 33.1 47.4839 33.3711V34.5805C47.4839 37.405 49.3765 39.7831 51.9614 40.5278C51.101 39.4663 50.5808 38.1188 50.5808 36.645L50.5806 33.6273Z" fill="#E6AF78"/>
<path d="M59.871 49.7224C59.871 48.901 60.1972 48.1134 60.778 47.5326L63.4351 44.8755C63.7902 45.3831 64 45.9942 64 46.6466V54.1936C64 54.4674 63.8912 54.7299 63.6976 54.9235C63.5041 55.1171 63.2415 55.2259 62.9677 55.2259H59.871V49.7224Z" fill="#C7CFE2"/>
<path d="M54.1935 46.375H53.1613C53.0244 46.375 52.8931 46.3206 52.7963 46.2238C52.6996 46.1271 52.6452 45.9958 52.6451 45.8589V44.3105H54.7096V45.8589C54.7096 45.9267 54.6963 45.9938 54.6704 46.0564C54.6444 46.1191 54.6064 46.176 54.5585 46.2239C54.5105 46.2718 54.4536 46.3098 54.391 46.3358C54.3284 46.3617 54.2613 46.375 54.1935 46.375Z" fill="#959CB5"/>
<path d="M53.6773 44.3012L51.9277 45.6376C51.8568 45.6917 51.775 45.73 51.688 45.7496C51.6009 45.7692 51.5107 45.7698 51.4234 45.7513C51.3361 45.7328 51.2538 45.6957 51.1822 45.6424C51.1106 45.5892 51.0513 45.5211 51.0085 45.4428L49.439 42.5766L50.0707 41.613C50.1036 41.5627 50.1471 41.5203 50.1981 41.4886C50.2491 41.4569 50.3064 41.4367 50.3661 41.4294C50.4257 41.4222 50.4861 41.428 50.5433 41.4465C50.6004 41.465 50.6528 41.4957 50.6968 41.5366L53.6773 44.3012ZM53.6773 44.3012L55.427 45.6377C55.4979 45.6919 55.5797 45.7301 55.6667 45.7497C55.7538 45.7693 55.844 45.7699 55.9313 45.7514C56.0186 45.7329 56.1009 45.6958 56.1725 45.6426C56.2441 45.5893 56.3034 45.5212 56.3462 45.443L57.9157 42.5767L57.284 41.6131C57.251 41.5629 57.2076 41.5204 57.1566 41.4887C57.1056 41.457 57.0482 41.4368 56.9886 41.4296C56.929 41.4223 56.8685 41.4281 56.8114 41.4466C56.7543 41.4651 56.7019 41.4959 56.6578 41.5367L53.6773 44.3012Z" fill="#C7CFE2"/>
<path d="M18.4778 40.3432C17.5957 38.0059 16.896 33.988 16.7449 31.8962C16.4574 27.9154 13.4575 24.6704 9.40229 24.6704C5.34704 24.6704 2.34717 27.9155 2.05967 31.8962C1.90854 33.9879 1.20892 38.0059 0.326794 40.3432C0.132419 40.8584 0.356794 41.4265 0.864169 41.6565C1.80942 42.0849 3.82479 42.9242 6.25542 43.251H12.549C14.9683 42.9234 16.9978 42.0837 17.9403 41.6565C18.4478 41.4265 18.6722 40.8584 18.4778 40.3432Z" fill="#5A4146"/>
<path d="M17.9403 41.6567C18.4476 41.4267 18.6721 40.8585 18.4776 40.3433C17.5956 38.006 16.8958 33.9882 16.7448 31.8963C16.4575 27.9155 13.4575 24.6705 9.40234 24.6705L9.37171 24.6707C6.26009 24.6833 5.16046 28.9269 7.83909 30.5103C7.99996 30.6054 8.10309 30.6512 8.10309 30.6512L10.4492 43.2512H12.5491C14.9683 42.9233 16.9978 42.0837 17.9403 41.6567Z" fill="#694B4B"/>
<path d="M16.8687 45.3236L13.5282 43.6535C13.1853 43.482 12.8969 43.2184 12.6953 42.8922C12.4937 42.566 12.387 42.1902 12.387 41.8067L12.3872 38.7098H6.1935V41.8068C6.1935 42.1902 6.08674 42.5661 5.88517 42.8922C5.68359 43.2183 5.39518 43.4819 5.05225 43.6533L1.71175 45.3236C1.19738 45.5807 0.764789 45.9761 0.462453 46.4652C0.160117 46.9544 -1.57873e-05 47.5181 1.1674e-09 48.0932L1.1674e-09 54.1935C1.1674e-09 54.4672 0.108755 54.7298 0.302339 54.9234C0.495923 55.117 0.75848 55.2257 1.03225 55.2257H17.5484C17.8221 55.2257 18.0847 55.117 18.2783 54.9234C18.4719 54.7298 18.5806 54.4672 18.5806 54.1935V48.0933C18.5806 47.5182 18.4205 46.9545 18.1181 46.4653C17.8158 45.9761 17.3831 45.5808 16.8687 45.3236Z" fill="#E6AF78"/>
<path d="M9.29032 42.8387C10.4018 42.8387 11.4664 42.6096 12.4424 42.2017C12.4168 42.0716 12.3869 41.9422 12.3869 41.8066L12.3872 38.7097H6.19345V41.8067C6.19345 41.9431 6.16357 42.0731 6.1377 42.2037C7.11432 42.6095 8.17844 42.8387 9.29032 42.8387Z" fill="#D29B6E"/>
<path d="M16.8687 45.3235L14.489 44.1337C13.3855 45.8377 11.4716 46.9678 9.29037 46.9678C7.10912 46.9678 5.19513 45.8377 4.09163 44.1335L1.71187 45.3235C1.19749 45.5807 0.764882 45.976 0.462525 46.4652C0.160168 46.9544 1.01662e-05 47.5181 0 48.0932L0 54.1934C0 54.4672 0.108755 54.7297 0.302339 54.9233C0.495923 55.1169 0.75848 55.2257 1.03225 55.2257H17.5484C17.8221 55.2257 18.0847 55.1169 18.2783 54.9233C18.4719 54.7297 18.5806 54.4672 18.5806 54.1934V48.0933C18.5806 47.5182 18.4205 46.9545 18.1181 46.4653C17.8158 45.9761 17.3831 45.5807 16.8687 45.3235Z" fill="#D5DCED"/>
<path d="M9.29033 40.7742C6.14133 40.7742 3.54133 38.4242 3.1482 35.3823C3.0912 34.9416 3.30308 34.5095 3.69983 34.3093C4.17508 34.0696 4.8657 33.6653 5.52695 33.0753C6.26333 32.4183 6.69533 31.7255 6.93933 31.2168C7.14945 30.7788 7.63245 30.5311 8.1032 30.6512C11.7377 31.5782 14.2121 33.4691 15.1098 34.2411C15.3508 34.4483 15.4897 34.754 15.465 35.071C15.2148 38.2622 12.546 40.7742 9.29033 40.7742Z" fill="#F0C087"/>
<path d="M15.1098 34.241C14.2122 33.469 11.7377 31.5781 8.10317 30.6511C7.63242 30.531 7.14942 30.7787 6.93929 31.2167C6.75454 31.602 6.44917 32.0927 5.99604 32.5937L5.99542 32.5972C5.85479 32.7566 5.70504 32.9163 5.52704 33.0753C4.86579 33.6655 4.17517 34.0696 3.69992 34.3093C3.30317 34.5095 3.09142 34.9417 3.14829 35.3825C3.50142 38.1143 5.63917 40.2888 8.35142 40.7036C7.11554 39.8628 6.19367 38.7066 6.19367 36.6453V35.1733C6.42817 35.0002 6.66429 34.8276 6.90154 34.6158C7.47226 34.1068 7.96914 33.5206 8.37779 32.8742C11.1582 33.7418 13.0432 35.187 13.7578 35.8015C13.9534 35.973 14.4389 36.4205 15.0069 36.9533C15.2513 36.3652 15.4129 35.7342 15.4648 35.0711C15.4897 34.754 15.3508 34.4483 15.1098 34.241Z" fill="#E6AF78"/>
<path d="M0.62925 46.2324C0.231625 46.7602 0 47.4075 0 48.0932V54.1934C0 54.4672 0.108755 54.7297 0.302339 54.9233C0.495923 55.1169 0.75848 55.2257 1.03225 55.2257H4.129V50.0244C4.129 49.3973 3.84387 48.804 3.35413 48.4123L0.62925 46.2324Z" fill="#C7CFE2"/>
<path d="M46.8304 43.9148L38.1935 40.774L32 42.8387L25.8065 40.7742L17.1697 43.9149C16.3731 44.2046 15.685 44.7323 15.1988 45.4265C14.7125 46.1207 14.4517 46.9477 14.4517 47.7953V54.1936C14.4517 54.4673 14.5604 54.7299 14.754 54.9235C14.9476 55.117 15.2101 55.2258 15.4839 55.2258H48.5162C48.7899 55.2258 49.0525 55.117 49.2461 54.9235C49.4397 54.7299 49.5484 54.4673 49.5484 54.1936V47.7953C49.5484 46.9477 49.2876 46.1207 48.8014 45.4264C48.3151 44.7322 47.627 44.2044 46.8304 43.9148Z" fill="#50A4FF"/>
<path d="M30.9187 44.9033L29.9355 55.2257H34.0645L33.0814 44.9033H30.9187Z" fill="#707487"/>
<path d="M33.0837 46.3214H30.9162C30.8213 46.3214 30.7274 46.3027 30.6397 46.2664C30.552 46.2301 30.4723 46.1769 30.4052 46.1098C30.3381 46.0427 30.2849 45.963 30.2486 45.8753C30.2123 45.7876 30.1936 45.6936 30.1936 45.5987V42.8386H33.8062V45.5987C33.8062 45.6936 33.7876 45.7876 33.7513 45.8753C33.715 45.9629 33.6617 46.0426 33.5947 46.1097C33.5276 46.1768 33.4479 46.23 33.3602 46.2664C33.2726 46.3027 33.1786 46.3214 33.0837 46.3214Z" fill="#5B5D6E"/>
<path d="M48.4372 44.9819C49.1342 45.7301 49.5484 46.7264 49.5484 47.7952V54.1934C49.5484 54.4672 49.4396 54.7298 49.246 54.9233C49.0524 55.1169 48.7899 55.2257 48.5161 55.2257H43.3549V51.7747C43.3549 50.6796 43.7899 49.6293 44.5642 48.8551L48.4372 44.9819Z" fill="#4097F6"/>
<path d="M43.3549 19.4862V10.8387C43.3549 9.69842 42.4305 8.77417 41.2904 8.77417H28.9033C24.3425 8.77417 20.6451 12.4714 20.6451 17.0323V19.4862C20.6451 20.5957 20.824 21.6979 21.1749 22.7504L21.5185 23.7813C21.6238 24.0971 21.6774 24.4277 21.6774 24.7605V25.2903H42.3225V24.7605C42.3225 24.4277 42.3761 24.097 42.4814 23.7813L42.825 22.7504C43.176 21.6979 43.3549 20.5957 43.3549 19.4862Z" fill="#5A4146"/>
<path d="M25.8065 12.9677C25.8065 15.2837 27.684 17.1612 30 17.1612H30.5806L30.8609 25.2902H42.3225V24.7604C42.3225 24.4275 42.3761 24.0969 42.4814 23.7812L42.825 22.7503C43.1759 21.6978 43.3548 20.5955 43.3548 19.486V10.8387C43.3548 9.69842 42.4304 8.77417 41.2903 8.77417H30C27.684 8.77417 25.8065 10.6517 25.8065 12.9677Z" fill="#694B4B"/>
<path d="M25.8063 33.5488H38.1938V42.8388H25.8063V33.5488Z" fill="#E6AF78"/>
<path d="M25.8065 37.0388C27.63 38.0952 29.7411 38.7096 32 38.7096C34.2589 38.7096 36.3701 38.0952 38.1935 37.0388V33.5483H25.8064L25.8065 37.0388Z" fill="#D29B6E"/>
<path d="M31.9999 42.8387L28.7077 46.1309C28.2652 46.5734 27.5338 46.5235 27.1556 46.025L23.7419 41.527L24.6348 39.6454C24.8983 39.0902 25.5856 38.8867 26.1088 39.2092L31.9999 42.8387ZM31.9999 42.8387L35.2922 46.1309C35.7347 46.5734 36.4661 46.5235 36.8443 46.025L40.2579 41.527L39.3651 39.6454C39.1016 39.0902 38.4143 38.8867 37.8911 39.2092L31.9999 42.8387Z" fill="#4097F6"/>
<path d="M32 36.6452C26.299 36.6452 21.6774 32.0236 21.6774 26.3226V25.1132C21.6774 24.5657 21.8949 24.0406 22.282 23.6534L23.1371 22.7982C23.3288 22.6065 23.4809 22.3789 23.5846 22.1284C23.6884 21.8779 23.7418 21.6095 23.7417 21.3384V18.8639C23.7417 18.3859 24.0627 17.9706 24.5279 17.8607C26.9692 17.2841 34.5664 15.9182 39.7365 19.7207C40.0722 19.9676 40.2579 20.3732 40.2579 20.79V21.3384C40.2579 21.8859 40.4754 22.411 40.8625 22.7982L41.7176 23.6534C41.9093 23.8451 42.0614 24.0727 42.1651 24.3232C42.2689 24.5736 42.3223 24.8421 42.3222 25.1132V26.3226C42.3226 32.0236 37.701 36.6452 32 36.6452Z" fill="#F0C087"/>
<path d="M39.7366 19.7208C36.1004 17.0465 31.2702 16.9307 27.871 17.2968C26.4371 17.4512 25.2524 17.6898 24.5281 17.8608C24.063 17.9707 23.742 18.386 23.742 18.864V21.3383C23.742 21.886 23.5245 22.4111 23.1372 22.7983L22.2821 23.6535C22.0904 23.8452 21.9383 24.0728 21.8345 24.3233C21.7308 24.5738 21.6774 24.8423 21.6774 25.1135V26.3227C21.6774 31.6007 25.6411 35.9458 30.7526 36.5627C28.9715 34.7078 27.8709 32.1942 27.8709 29.4195V21.8743C27.8709 20.8282 28.6487 19.954 29.6866 19.8238C32.1639 19.5132 36.7011 19.3265 40.2579 21.3386V20.7901C40.2581 20.3733 40.0721 19.9676 39.7366 19.7208Z" fill="#E6AF78"/>
<path d="M15.5628 44.9819C14.8658 45.7301 14.4517 46.7264 14.4517 47.7952V54.1934C14.4517 54.4672 14.5604 54.7298 14.754 54.9233C14.9476 55.1169 15.2101 55.2257 15.4839 55.2257H20.6452V51.7747C20.6452 50.6796 20.2102 49.6293 19.4358 48.8551L15.5628 44.9819Z" fill="#4097F6"/>
</svg>
