<svg width="127" height="101" viewBox="0 0 127 101" fill="none" xmlns="http://www.w3.org/2000/svg">
<path d="M74.0165 36.5907C66.2073 36.6373 58.277 36.2739 50.8593 34.2144C43.4415 32.155 36.8811 28.269 30.9171 23.7308C27.0125 20.7767 23.462 18.4284 18.3926 18.7825C13.436 19.043 8.69487 20.8924 4.87102 24.0569C-1.57759 29.7041 -0.599111 40.1412 1.97288 47.4844C5.8495 58.5458 17.6471 66.2245 27.6648 71.2287C39.2481 77.0156 51.9682 80.3797 64.7256 82.3087C75.9082 84.0047 90.2685 85.2441 99.9507 77.9382C108.85 71.238 111.292 55.9179 109.111 45.574C108.58 42.5189 106.954 39.7622 104.536 37.8208C98.2826 33.2546 88.9638 36.3018 81.9375 36.4602C79.3748 36.5162 76.6817 36.5814 74.0165 36.5907Z" fill="#F2F2F2"/>
<path d="M58.1092 100.425C76.9973 100.425 92.3091 99.4739 92.3091 98.3005C92.3091 97.127 76.9973 96.1758 58.1092 96.1758C39.221 96.1758 23.9092 97.127 23.9092 98.3005C23.9092 99.4739 39.221 100.425 58.1092 100.425Z" fill="#F2F2F2"/>
<path d="M35.9404 0.424805V4.43189" stroke="#CFCFCF" stroke-width="0.85" stroke-linecap="round" stroke-linejoin="round"/>
<path d="M33.9365 2.42871H37.9436" stroke="#CFCFCF" stroke-width="0.85" stroke-linecap="round" stroke-linejoin="round"/>
<path d="M111.963 80.2959V84.303" stroke="#CFCFCF" stroke-width="0.85" stroke-linecap="round" stroke-linejoin="round"/>
<path d="M109.959 82.2998H113.966" stroke="#CFCFCF" stroke-width="0.85" stroke-linecap="round" stroke-linejoin="round"/>
<path d="M5.66324 62.9905C6.16761 62.9905 6.57648 62.5817 6.57648 62.0773C6.57648 61.5729 6.16761 61.1641 5.66324 61.1641C5.15887 61.1641 4.75 61.5729 4.75 62.0773C4.75 62.5817 5.15887 62.9905 5.66324 62.9905Z" fill="#CFCFCF"/>
<path d="M83.4191 4.56281C83.9235 4.56281 84.3323 4.15394 84.3323 3.64957C84.3323 3.1452 83.9235 2.73633 83.4191 2.73633C82.9147 2.73633 82.5059 3.1452 82.5059 3.64957C82.5059 4.15394 82.9147 4.56281 83.4191 4.56281Z" fill="#CFCFCF"/>
<path d="M31.7653 11.3086H81.4345C82.6703 11.3086 83.8554 11.7995 84.7292 12.6733C85.603 13.5471 86.0939 14.7322 86.0939 15.968V75.0585C86.0939 76.2942 85.603 77.4794 84.7292 78.3532C83.8554 79.227 82.6703 79.7179 81.4345 79.7179H25.4006C24.1649 79.7179 22.9797 79.227 22.1059 78.3532C21.2321 77.4794 20.7412 76.2942 20.7412 75.0585V22.4446L31.7653 11.3086Z" fill="white" stroke="#BABABA" stroke-linecap="round" stroke-linejoin="round"/>
<path d="M20.7412 22.4446H29.7711C30.3009 22.4421 30.8081 22.2299 31.1818 21.8544C31.5555 21.479 31.7654 20.9708 31.7653 20.441V11.3086L20.7412 22.4446Z" fill="white" stroke="#BABABA" stroke-linecap="round" stroke-linejoin="round"/>
<path d="M85.8704 40.1045H34.6543V80.2871H85.8704V40.1045Z" fill="#D2D2D2"/>
<path d="M85.6186 27.2715H34.9617C32.9905 27.2715 31.3926 28.8694 31.3926 30.8406V41.6783C31.3926 43.6495 32.9905 45.2474 34.9617 45.2474H85.6186C87.5898 45.2474 89.1878 43.6495 89.1878 41.6783V30.8406C89.1878 28.8694 87.5898 27.2715 85.6186 27.2715Z" fill="white" stroke="#BABABA" stroke-linecap="round" stroke-linejoin="round"/>
<path d="M41.2336 39.3959C42.9525 39.3959 44.3461 38.0024 44.3461 36.2834C44.3461 34.5644 42.9525 33.1709 41.2336 33.1709C39.5146 33.1709 38.1211 34.5644 38.1211 36.2834C38.1211 38.0024 39.5146 39.3959 41.2336 39.3959Z" fill="#D2D2D2"/>
<path d="M51.0177 39.3959C52.7367 39.3959 54.1302 38.0024 54.1302 36.2834C54.1302 34.5644 52.7367 33.1709 51.0177 33.1709C49.2988 33.1709 47.9053 34.5644 47.9053 36.2834C47.9053 38.0024 49.2988 39.3959 51.0177 39.3959Z" fill="#D2D2D2"/>
<path d="M60.7931 39.3959C62.5121 39.3959 63.9056 38.0024 63.9056 36.2834C63.9056 34.5644 62.5121 33.1709 60.7931 33.1709C59.0742 33.1709 57.6807 34.5644 57.6807 36.2834C57.6807 38.0024 59.0742 39.3959 60.7931 39.3959Z" fill="#D2D2D2"/>
<path d="M85.6186 47.1953H34.9617C32.9905 47.1953 31.3926 48.7933 31.3926 50.7644V61.6022C31.3926 63.5733 32.9905 65.1713 34.9617 65.1713H85.6186C87.5898 65.1713 89.1878 63.5733 89.1878 61.6022V50.7644C89.1878 48.7933 87.5898 47.1953 85.6186 47.1953Z" fill="white" stroke="#BABABA" stroke-linecap="round" stroke-linejoin="round"/>
<path d="M41.2336 59.3285C42.9525 59.3285 44.3461 57.935 44.3461 56.216C44.3461 54.497 42.9525 53.1035 41.2336 53.1035C39.5146 53.1035 38.1211 54.497 38.1211 56.216C38.1211 57.935 39.5146 59.3285 41.2336 59.3285Z" fill="#D2D2D2"/>
<path d="M51.0177 59.3285C52.7367 59.3285 54.1302 57.935 54.1302 56.216C54.1302 54.497 52.7367 53.1035 51.0177 53.1035C49.2988 53.1035 47.9053 54.497 47.9053 56.216C47.9053 57.935 49.2988 59.3285 51.0177 59.3285Z" fill="#D2D2D2"/>
<path d="M60.7931 59.3285C62.5121 59.3285 63.9056 57.935 63.9056 56.216C63.9056 54.497 62.5121 53.1035 60.7931 53.1035C59.0742 53.1035 57.6807 54.497 57.6807 56.216C57.6807 57.935 59.0742 59.3285 60.7931 59.3285Z" fill="#D2D2D2"/>
<path d="M85.6186 67.1289H34.9617C32.9905 67.1289 31.3926 68.7268 31.3926 70.698V81.5358C31.3926 83.5069 32.9905 85.1049 34.9617 85.1049H85.6186C87.5898 85.1049 89.1878 83.5069 89.1878 81.5358V70.698C89.1878 68.7268 87.5898 67.1289 85.6186 67.1289Z" fill="white" stroke="#BABABA" stroke-linecap="round" stroke-linejoin="round"/>
<path d="M41.2336 79.2523C42.9525 79.2523 44.3461 77.8588 44.3461 76.1398C44.3461 74.4209 42.9525 73.0273 41.2336 73.0273C39.5146 73.0273 38.1211 74.4209 38.1211 76.1398C38.1211 77.8588 39.5146 79.2523 41.2336 79.2523Z" fill="#D2D2D2"/>
<path d="M51.0177 79.2523C52.7367 79.2523 54.1302 77.8588 54.1302 76.1398C54.1302 74.4209 52.7367 73.0273 51.0177 73.0273C49.2988 73.0273 47.9053 74.4209 47.9053 76.1398C47.9053 77.8588 49.2988 79.2523 51.0177 79.2523Z" fill="#D2D2D2"/>
<path d="M60.7931 79.2523C62.5121 79.2523 63.9056 77.8588 63.9056 76.1398C63.9056 74.4209 62.5121 73.0273 60.7931 73.0273C59.0742 73.0273 57.6807 74.4209 57.6807 76.1398C57.6807 77.8588 59.0742 79.2523 60.7931 79.2523Z" fill="#D2D2D2"/>
<path d="M90.2036 49.9726C100.873 49.9726 109.521 41.3237 109.521 30.6548C109.521 19.9858 100.873 11.3369 90.2036 11.3369C79.5346 11.3369 70.8857 19.9858 70.8857 30.6548C70.8857 41.3237 79.5346 49.9726 90.2036 49.9726Z" fill="white" stroke="#BABABA" stroke-linecap="round" stroke-linejoin="round"/>
<path d="M103.921 44.6709L109.065 49.8149" stroke="#BABABA" stroke-linecap="round" stroke-linejoin="round"/>
<path d="M108.49 47.3174L106.894 48.988C106.175 49.7394 106.202 50.931 106.953 51.6494L120.83 64.9145C121.581 65.6329 122.773 65.606 123.491 64.8546L125.088 63.184C125.807 62.4325 125.78 61.241 125.028 60.5226L111.152 47.2575C110.4 46.5391 109.209 46.5659 108.49 47.3174Z" fill="white" stroke="#BABABA" stroke-linecap="round" stroke-linejoin="round"/>
</svg>
